<svg height="1024" viewBox="0 0 1024 1024" width="1024" xmlns="http://www.w3.org/2000/svg"><path d="m.341 330c.389-103.686.372-103.354 6.284-130 23.175-104.456 110.233-183.536 217.375-197.454 11.106-1.443 27.744-1.592 149.167-1.335 75.167.159 136.891.514 137.166.789s.65 63.599.835 140.719.029 139.445-.346 138.5-.713-1.318-.752-.829c-.071.903-5.07-6.023-5.07-7.025 0-2.029-18.591-21.194-30.274-31.209-11.715-10.042-42.361-29.793-61.226-39.46-15.06-7.717-38.588-18.189-55.5-24.7-4.675-1.8-12.325-4.751-17-6.558-17.74-6.859-48.118-16.59-91.5-29.31-35.535-10.419-36.5-10.55-36.5-4.944 0 1.994 1.029 3.999 3.13 6.1 1.721 1.721 2.686 3.278 2.145 3.458s-.792 1.337-.556 2.571c.257 1.345-.302 2.9-1.395 3.883-1.978 1.778-4.39 1.508-15.324-1.714-14.63-4.311-17.193-4.785-18.102-3.351-1.326 2.093-1.087 15.28.302 16.669 1.837 1.837.959 1.578-13.363-3.926-7.335-2.819-14.799-5.54-20.837-7.374-.473 1.1-.891 36.888-.93 79.528-.069 76.246-.103 77.556-2.07 79.24-1.926 1.649-2 2.95-2 35.163 0 25.662-.291 33.639-1.25 34.26-.688.445-22.625.863-48.75.929-33.782.085-48.8.47-52 1.334-5.989 1.616-16.9 7.951-23.697 13.758-5.761 4.922-12.398 14.303-16.124 22.788 0 0-2.196 5-2.196 5s.358-95.5.358-95.5" fill="#afc933" stroke="#afc933"/><path d="m1022.046 426.5c-.044-1.1-1.198-3.06-2.563-4.355s-2.483-2.789-2.483-3.32c0-1.886-5.863-9.43-12.86-16.548-8.531-8.679-17.355-13.432-32.14-17.311-1.925-.505-16.866-.929-33.203-.942 0 0-29.703-.024-29.703-.024s-1.626-3.425-1.626-3.425c-1.978-4.167-5.031-4.888-17.468-4.117-4.675.29-9.964.255-11.753-.077 0 0-3.253-.605-3.253-.605s.015-110.076.015-110.076c.009-66.007-.355-110.446-.909-111-.565-.565-5.328.699-12.262 3.253-6.236 2.297-13.7 5.033-16.588 6.078 0 0-5.25 1.901-5.25 1.901v-10.997c0-9.121-.271-11.102-1.587-11.607-.873-.335-7.539 1.255-14.814 3.532s-13.761 4.14-14.413 4.14c-.842 0-1.186-3.157-1.186-10.878 0-7.62-.384-11.196-1.281-11.94-1.359-1.128-1.252-1.155-38.719 9.516-54.716 15.584-105.949 35.252-146 56.051-15.967 8.292-41.302 23.323-49.5 29.369-2.2 1.622-7.15 5.265-11 8.094-20.583 15.126-43.083 38.255-47.573 48.904 0 0-1.427 3.384-1.427 3.384s-.5-6.939-.5-6.939c-.275-3.817-.357-67.376-.182-141.242 0 0 .317-134.303.317-134.303s138.373-.009 138.373-.009c118.781-.008 140.044.209 150.182 1.529 83.556 10.884 156.493 62.167 194.359 136.656 13.817 27.18 21.321 50.647 26.157 81.808 1.991 12.829 2.115 18.199 2.514 108 .276 62.071.074 95.358-.587 97-.861 2.139-1.018 2.211-1.087.5" fill="#fb5a47" stroke="#fb5a47"/><path d="m511.895 983.317c-.516-4.031-.361-162.563.159-163.405.495-.802 2.846-.666 8.424.488 9.64 1.994 20.052 2.039 30.026.131 4.224-.808 7.976-1.43 8.338-1.382 2.319.309 4.374-.433 6.645-2.399 0 0 2.599-2.25 2.599-2.25s-1.507-16.381-1.507-16.381c-.829-9.01-1.703-16.576-1.941-16.814-.803-.803-6.108-.521-10.638.566-13.069 3.136-24.272.274-28.283-7.226-2.17-4.058-2.223-5.005-2.518-45.395 0 0-.301-41.25-.301-41.25h19.051c24.573 0 23.051 1.207 23.051-18.277 0-20.077 1.596-18.723-22.057-18.723h-18.943v-14-14h175.75 175.75s-.218 66.75-.218 66.75c-.12 36.712-.233 69.787-.25 73.5-.027 5.839-.276 6.75-1.844 6.75-5.665 0-17.307 8.88-20.322 15.5-2.905 6.378-2.512 16.027.921 22.636 3.189 6.139 10.166 11.513 16.2 12.478 2.055.329 4.161.888 4.679 1.242.562.385.719 7.068.388 16.59 0 0-.554 15.947-.554 15.947s-15 5.326-15 5.326c-8.25 2.929-20.4 7.295-27 9.701s-20.55 7.406-31 11.11c-20.029 7.1-32.59 11.603-51.5 18.462-6.325 2.294-17.8 6.433-25.5 9.199s-16.475 5.932-19.5 7.036-10.9 3.923-17.5 6.266-35.4 12.675-64 22.961-58.975 21.187-67.5 24.226-20.9 7.474-27.5 9.856c-14.71 5.309-16.473 5.816-16.605 4.781m165.386-162.892c18.007-3.745 34.186-13.357 43.962-26.116 6.758-8.821 7.331-10.201 5.107-12.291-2.433-2.286-27.141-17.018-28.542-17.018-.597 0-4.559 3.319-8.805 7.375-5.729 5.474-9.214 7.935-13.515 9.544-8.993 3.365-15.256 4.383-23.45 3.814-21.41-1.488-36.155-14.343-39.499-34.438 0 0-.7-4.206-.7-4.206s59.618-.294 59.618-.294c51.688-.255 59.743-.495 60.565-1.795 1.277-2.021 1.219-22.912-.086-31-4.943-30.647-24.517-54.196-52.199-62.801-7.467-2.321-9.873-2.566-25.737-2.623-19.823-.071-24.656.857-38.729 7.431-21.124 9.867-36.094 27.549-42.74 50.483-6.338 21.872-4.98 47.158 3.59 66.845 11.924 27.39 36.034 44.713 67.753 48.683 8.281 1.036 24.477.264 33.407-1.593m114.978-2.675c1.469-1.119 1.679-5.979 2.008-46.25.393-48.071.624-50.486 5.797-60.626 3.138-6.15 10.266-12.661 17.735-16.2 6.542-3.099 7.05-3.177 21.468-3.275 8.122-.055 15.097-.429 15.5-.831s.88-9.178 1.059-19.502c.381-21.923.531-21.547-9.067-22.575-9.245-.99-23.693 1.884-32.778 6.519-5.578 2.846-14.216 11.029-18.289 17.325 0 0-3.192 4.934-3.192 4.934s-.76-11.294-.76-11.294c-.418-6.211-1.26-11.897-1.872-12.634-1.511-1.821-35.86-1.949-37.668-.141-.914.914-1.197 20.416-1.185 81.75.008 44.302.346 81.045.75 81.65 1.334 1.997 3.571 2.241 21.294 2.321 12.611.057 18.021-.273 19.2-1.171" fill="#f94d30" stroke="#f94d30"/><path d="m493.5 978.089c-9.35-3.242-23.525-8.228-31.5-11.08s-16.75-5.866-19.5-6.699-5.45-1.852-6-2.266-7.525-2.886-15.5-5.494-17.425-5.999-21-7.536-10.55-4.037-15.5-5.556c-10.746-3.297-15.287-4.91-30.703-10.906-6.437-2.503-12.223-4.552-12.859-4.552s-8.195-2.519-16.797-5.598-23.741-8.5-33.641-12.047-20.025-7.159-22.5-8.028-5.85-2.131-7.5-2.804c-9.025-3.682-15.539-6.045-24.749-8.975-13.69-4.356-36.99-12.669-38.304-13.666-1.532-1.163-21.447-7.836-21.447-7.186 0 .302-.562.11-1.25-.428-1.3-1.016-2.371-1.438-17.25-6.783 0 0-9-3.234-9-3.234s-.273-18.125-.273-18.125-.272-18.126-.272-18.126h63.331c50.612 0 63.691-.263 65.122-1.309 1.521-1.112 1.787-2.844 1.766-11.513-.014-6.002.357-9.968.826-11.178-.576 0-1-3.126-1-7.378 0-4.945-.441-7.744-1.339-8.489-.925-.768-14.6-1.192-44.25-1.372 0 0-42.911-.261-42.911-.261s-.306-66-.306-66c-.168-36.3-.011-71.053.348-77.23 0 0 .653-11.23.653-11.23s144.152.23 144.152.23 144.153.23 144.153.23.277 14.25.277 14.25.278 14.25.278 14.25h-14.492c-13.305 0-14.578.158-15.528 1.934-.576 1.077-1.035 8.324-1.035 16.345 0 18.616-.871 17.721 17.242 17.721h13.584s.422 45.25.422 45.25c.36 38.63.671 46.128 2.118 51.25 3.427 12.129 9.534 21.517 17.975 27.632 2.177 1.577 3.554 2.905 3.059 2.949-.495.045.829.887 2.943 1.873 0 0 3.843 1.792 3.843 1.792s-.137 37.127-.137 37.127c-.093 25.21.198 37.127.907 37.127.672 0 1.044 4.655 1.044 13.059 0 8.451-.353 12.841-1 12.441-.658-.407-1 9.796-1 29.858 0 16.762.391 30.626.868 30.809 1.167.448 2.484 4.835 1.449 4.825-.45-.005-8.467-2.661-17.817-5.903m-128.746-157.713c6.916-1.443 18.596-6.498 24.496-10.6 3.92-.877 3.977-.79 4.735-.706.008.863 1.14 2.547 2.515 3.743s2.5 2.803 2.5 3.573c0 2.267 2.377 2.615 17.832 2.603 15.002-.011 22.472-.687 21.685-1.961-.244-.394-.609-26.099-.813-57.122-.413-62.846-.5-63.774-7.295-77.525-4.026-8.148-15.411-21.69-20.918-24.881-2.312-1.34-3.284-2.534-2.945-3.618.315-1.009-.49-2.27-2.136-3.349-2.305-1.51-2.825-1.546-4.088-.283s-2.286 1.214-8.035-.38c-9.129-2.531-25.289-4.079-30.556-2.926-2.327.509-9.115 1.664-15.085 2.565-10.768 1.626-10.866 1.623-12.307-.435-3.967-5.663-17.972.529-17.164 7.588.281 2.455-.554 3.531-6.175 7.963-9.151 7.215-18 19.063-18 24.099 0 2.086.608 2.469 12 7.567 3.025 1.354 8.989 4.092 13.254 6.085s8.15 3.624 8.633 3.624 3.006-2.899 5.607-6.441c7.605-10.359 15.287-14.474 28.506-15.272 10.714-.647 18.573 1.429 24.009 6.34 5.421 4.898 7.355 9.396 6.058 14.093-.671 2.43-.687 4.06-.047 4.7 1.333 1.333 1.243 4.58-.127 4.58-.609 0-.867.625-.574 1.389.591 1.539-2.254 1.895-28.819 3.598-26.502 1.699-39.721 5.339-53 14.594-12.951 9.026-19.5 22.168-19.5 39.132 0 13.47 4.566 24.707 13.713 33.747 6.027 5.957 10.775 8.737 20.447 11.969 12.814 4.282 27.181 4.955 41.594 1.947" fill="#058833" stroke="#058833"/><path d="m511.627 1004.307c.415-17.453.673-19.886 2.172-20.472 1.917-.749 19.114-6.926 42.201-15.155 8.525-3.039 38.9-13.94 67.5-24.226s57.4-20.618 64-22.961 14.475-5.162 17.5-6.266 11.8-4.27 19.5-7.036 19.175-6.905 25.5-9.199c18.91-6.859 31.471-11.362 51.5-18.462 10.45-3.704 24.4-8.704 31-11.11s18.75-6.772 27-9.701c0 0 15-5.326 15-5.326s.521-15.746.521-15.746c.55-16.62.95-17.896 5.479-17.474 2.525.235 8.665-1.136 10.048-2.244.577-.462 2.73-.953 4.784-1.091 3.925-.264 7.668-2.896 7.668-5.391 0-.811.546-2.35 1.215-3.42.954-1.527.954-2.67 0-5.308-.669-1.849-1.215-5.386-1.215-7.862 0-7.146-2.6-13.233-7.634-17.874-5.968-5.501-10.421-7.226-18.866-7.309-3.85-.038-5.763-.234-4.25-.437 2.684-.361 2.751-.529 2.788-7.053.021-3.676.023-36.24.004-72.363s.237-66.386.569-67.25c.536-1.396 5.642-1.573 45.746-1.589 59.857-.024 61.825-.299 79.493-11.052 5.557-3.382 15.282-14.531 19.4-22.241 0 0 2.75-5.149 2.75-5.149v102.679c0 86.589-.241 104.528-1.537 114.48-10.882 83.547-62.169 156.486-136.655 194.35-27.13 13.791-50.455 21.256-81.808 26.182-13.185 2.071-16.751 2.13-152.672 2.502 0 0-139.172.381-139.172.381s.471-19.807.471-19.807" fill="#fc9b37" stroke="#fc9b37"/><path d="m238.983 1022.972c-88.94-5.632-169.651-58.725-210.033-138.164-13.809-27.165-21.301-50.592-26.163-81.808-2.022-12.982-2.114-17.532-2.397-118.5-.162-57.75.067-103.875.509-102.5 1.353 4.213 5.855 12.551 7.523 13.935.868.72 1.578 1.914 1.578 2.653s1.397 2.933 3.104 4.877c3.812 5.235-1.213 4.671 2.57 5.107 1.653-.634 4.384.622 7.789 3.583 2.601 2.261 11.303 6.845 12.995 6.845.615 0 2.85.883 4.967 1.962 2.694 1.373 4.368 1.684 5.58 1.035.952-.51 2.053-.605 2.446-.212s21.265.94 46.382 1.215c0 0 45.667.5 45.667.5s.255 95.826.255 95.826c.267 100.322.13 97.296 4.472 98.94 1.535.581 1.758 2.681 2 18.82 0 0 .273 18.165.273 18.165s9 3.234 9 3.234c14.879 5.345 15.95 5.767 17.25 6.783.688.538 1.25.73 1.25.428 0-.65 19.915 6.023 21.447 7.186 1.314.997 24.614 9.31 38.304 13.666 9.21 2.93 15.724 5.293 24.749 8.975 1.65.673 5.025 1.935 7.5 2.804s12.6 4.481 22.5 8.028 25.039 8.968 33.641 12.047 16.161 5.598 16.797 5.598 6.422 2.049 12.859 4.552c15.416 5.996 19.957 7.609 30.703 10.906 4.95 1.519 11.925 4.019 15.5 5.556s13.025 4.928 21 7.536 14.95 5.08 15.5 5.494 3.25 1.433 6 2.266 11.525 3.84 19.5 6.684 21.463 7.62 29.973 10.612 15.859 5.826 16.331 6.298.809 8.111.75 16.977c-.07 10.434.254 16.119 1.946 23.119 0 0-130.25-.149-130.25-.149-71.638-.082-135.433-.478-141.767-.879" fill="#04b366" stroke="#04b366"/><path d="m49.5 618.72c-1.1-.671-3.575-1.705-10.885-5.159-3.211.806-7.667-1.629-11.017-6.021-1.501-1.968-3.115-3.338-3.588-3.046-2.999 1.853-12.344-8.407-19.244-21.129 0 0-4.266-7.865-4.266-7.865v-73.145c0-68.258.117-73.274 1.75-75.079.963-1.064 1.75-2.305 1.75-2.758s1.319-3.568 2.931-6.921c3.099-6.447 18.183-23.263 19.909-22.196.513.317 1.483-.087 2.156-.897 2.237-2.695 14.333-7.474 19.075-7.536 1.336-.017 3.302-.693 4.37-1.5 1.64-1.24 8.899-1.468 46.75-1.468h44.809s.015 76.75.015 76.75c.009 46.514.388 77.341.962 78.25.762 1.208 4.056 1.562 16.923 1.818 10.286.205 16.708-.073 18.028-.779 2.01-1.076 2.055-1.914 2.311-42.818 0 0 .261-41.721.261-41.721h14.965 14.966s25.197 41.887 25.197 41.887c13.858 23.038 25.798 42.269 26.534 42.735 1.513.959 37.123 1.177 40.588.248 1.237-.332 2.25-1.289 2.25-2.128s-2.414-5.399-5.364-10.134-10.23-16.483-16.178-26.108-15.719-25.375-21.714-35c-9.61-15.428-10.696-17.618-9.187-18.5 9.132-5.336 16.89-11.182 21.585-16.269 3.103-3.362 5.954-5.802 6.334-5.422s.99.698 1.357.706 3.255 1.073 6.418 2.366 6.669 2.111 7.791 1.818c1.561-.408 1.922-.141 1.537 1.134-2.837 9.399-3.386 33.28-1.07 46.558 5.329 30.559 22.622 51.682 49.491 60.453 22.592 7.375 48.042 4.351 65.996-7.841 9.318-6.327 22.931-22.413 22.985-27.159.012-1.054-4.578-4.476-12.625-9.413 0 0-12.643-7.756-12.643-7.756s-2.09 2.912-2.09 2.912c-13.021 18.15-32.007 24.441-51.962 17.216-7.081-2.564-15.156-9.622-18.921-16.539-2.889-5.308-5.74-14.982-5.74-19.474v-2.79h39.433c38.554 0 39.446.045 40.067 2 .349 1.1 1.506 2 2.571 2s3.616.9 5.668 2 4.642 2 5.756 2 3.239 1.125 4.722 2.5c1.952 1.81 3.811 2.5 6.739 2.5 2.224 0 4.044.477 4.044 1.059s.493.754 1.096.381c.78-.482.903 1.451.424 6.691-2.447 26.787 12.909 47.412 39.02 52.408 4.2.804 12.209 1.461 17.798 1.462 0 0 10.162.001 10.162.001s.054 28.894.054 28.894.054 28.895.054 28.895-11.554 3.002-11.554 3.002c-6.355 1.651-12.76 3.274-14.234 3.606-4.024.906-5.82 3.271-5.82 7.663v3.918s-144.75-.24-144.75-.24-144.75-.24-144.75-.24-.5-15.333-.5-15.333c-.452-13.853-.693-15.475-2.5-16.801-2.944-2.16-41.119-1.591-42.523.634-.521.825-.954 8.362-.962 16.75 0 0-.015 15.25-.015 15.25s-45.75-.03-45.75-.03c-34.186-.023-46.256-.339-47.75-1.25" fill="#6c4cbd" stroke="#6c4cbd"/><path d="m807.23 458.785c-.225-78.653-.279-80.741-2.164-81.75-2.202-1.178-27.338-1.43-28.483-.285-.412.413-1.274.75-1.916.75-.875 0-1.294 20.124-1.676 80.5 0 0-.509 80.5-.509 80.5s-.241-62.188-.241-62.188-.241-62.189-.241-62.189-6.25.244-6.25.244c-4.305.168-9.128 1.35-15.5 3.799 0 0-9.25 3.556-9.25 3.556v-54.639c0-47.834-.194-54.914-1.557-56.86-1.485-2.12-2.215-2.223-15.777-2.223-11.253 0-14.684.325-16.443 1.557-2.212 1.549-2.223 1.703-2.23 31.25-.009 35.764-.534 43.193-3.054 43.193-.975 0-2.674-1.237-3.776-2.75-1.672-2.294-2.803-2.774-6.833-2.893-2.656-.079-7.53-1.183-10.83-2.454-5.211-2.007-7.84-2.317-20-2.357-16.352-.054-22.789 1.57-35.727 9.01-4.25 2.444-8.643 4.444-9.763 4.444-3.186 0-10.006 6.984-10.008 10.248-.001 1.545-1.539 4.885-3.512 7.632-11.4 15.868-17.478 43.551-14.621 66.59 0 0 1.112 8.97 1.112 8.97s-2.74 2.244-2.74 2.244c-3.244 2.656-4.241 2.848-4.241.816 0-2.306-1.688-1.778-2.399.75-1.633 5.807-2.42-2.783-2.863-31.25-.422-27.118-.713-31.383-2.621-38.466-5.439-20.191-20.333-34.789-39.913-39.118-3.687-.815-8.623-1.917-10.968-2.449s-5.364-.967-6.708-.967h-2.443s-.063-40.443-.063-40.443-.063-40.444-.063-40.444 3.271-1.477 3.271-1.477c4.773-2.156 30.475-12.159 36.026-14.021 2.616-.877 10.716-3.872 18-6.654s16.844-6.424 21.244-8.093 10.025-3.879 12.5-4.912 11.7-4.558 20.5-7.832 23.2-8.725 32-12.113 21.175-8.079 27.5-10.424c24.36-9.03 34.697-12.846 40-14.766 3.025-1.095 7.525-2.814 10-3.821s7.2-2.809 10.5-4.006c7.07-2.565 12.843-4.78 17-6.524 1.65-.692 6.15-2.384 10-3.76 7.778-2.779 24.359-9.205 29-11.24 1.65-.723 4.339-1.65 5.976-2.058s5.687-1.965 9-3.459 10.299-4.176 15.524-5.958 9.725-3.563 10-3.959 2.525-1.435 5-2.311 9.602-3.472 15.838-5.77c6.934-2.555 11.697-3.82 12.262-3.255.903.903 1.363 221.171.464 222.07-.237.237-.91.134-1.497-.229-.701-.433-1.067-7.935-1.067-21.9 0-22.252-.266-23.662-4.45-23.621-1.128.011-8.125 1.951-15.55 4.311 0 0-13.5 4.291-13.5 4.291s-.273 18.189-.273 18.189-.272 18.189-.272 18.189h-9.478c-11.586 0-13.471 1.223-13.488 8.75-.015 6.529-1.066 12.321-2.117 11.671-.523 1.934-2.641 1.579-3.568.941-.442.442-1.038 32.604-1.324 71.471 0 0-.519 70.667-.519 70.667s-.231-80.715-.231-80.715m-9.448-106.338c8.369-3.496 13.218-10.996 13.218-20.447 0-12.506-9.204-22.04-21.218-21.978-19.324.099-28.227 26.366-13.161 38.828 6.234 5.156 14.19 6.509 21.161 3.597" fill="#de207f" stroke="#de207f"/><path d="m503.5 501.39c-2.2-.837-4.9-1.754-6-2.037s-3.575-1.303-5.5-2.267-5.46-2.366-7.856-3.115c-5.242-1.639-5.833-2.851-4.041-8.282 1.887-5.719 5.956-10.038 11.842-12.57 6.035-2.596 16.81-4.275 17.322-2.698.294.905.145 29.537-.165 31.829-.139 1.029-.973.901-5.602-.86" fill="#058833" stroke="#058833"/><path d="m523 611.689c0-10.503-.619-11.689-6.093-11.689h-3.692s-.561-17.25-.561-17.25c-.308-9.487-.469-22.358-.357-28.601 0 0 .203-11.35.203-11.35s6-2.293 6-2.293c9.089-3.472 11.473-4.97 17.687-11.108 6.397-6.319 6.187-6.433 7.131 3.851.694 7.561 1.082 7.751 15.87 7.751 7.119 0 13.814-.466 14.878-1.035 1.839-.984 1.934-2.365 1.934-28.059 0-18.897.321-26.825 1.067-26.364-.571-2.556 9.889-2.556 10.61-4.198.204.204 1.289 3.698 2.41 7.764 6.077 22.042 19.457 38.703 38.413 47.834 10.871 5.236 16.912 6.505 31 6.514 17.428.011 27.89-3.657 39.159-13.73 5.639-5.04 7.038-4.602 7.541 2.357.641 8.859.757 8.92 17.172 8.902 7.77-.008 14.803-.443 15.628-.964 1.296-.819 1.568-8.937 2-59.734 0 0 .5-58.787.5-58.787s9-3.439 9-3.439c6.096-2.329 11.017-3.519 15.25-3.688 0 0 6.25-.25 6.25-.25v61.882 61.882s2.223 1.556 2.223 1.556c2.955 2.07 29.319 2.221 32.001.184 1.598-1.214 1.744-6.42 2-71.385.152-38.542.638-70.438 1.08-70.88 2.37 2.455 4.004-1.736 4.826-3.053.071-1.545.518.566.993 4.691s1.078 8.062 1.339 8.75c.339.891 3.502 1.25 11.007 1.25h10.531v47.84c0 44.242.147 48.417 1.96 55.504 4.117 16.095 12.917 25.044 28.661 29.145 3.125.814 5.811 1.61 5.969 1.768.318.318.641 19.655.354 21.243-.099.55-.137 1.312-.082 1.693s.363 12.871.685 27.755c0 0 .585 27.063.585 27.063s-176.566-.016-176.566-.016-176.566-.017-176.566-.017z" fill="#cc1c7b" stroke="#cc1c7b"/><path d="m875.92 613.264c-.089-8.644-.542-30.014-.863-40.764-.115-3.85-.148-7.45-.073-8s.085-5.549.023-11.108c0 0-.113-10.108-.113-10.108s11.303-.531 11.303-.531c7.525-.353 12.974-1.162 16.303-2.419 0 0 5-1.889 5-1.889s.574-5.473.574-5.473c.316-3.01.269-5.697-.104-5.972s-.929-4.263-1.237-8.863-1.048-8.852-1.646-9.45c-.782-.782-2.714-.751-6.897.113-12.175 2.515-20.756.619-25.565-10.925-.344-1.719-.625-22.419-.625-46v-42.875h16.3c11.344 0 16.665-.365 17.5-1.2.808-.808 1.22-5.621 1.263-14.75.043-9.128.359-12.816.968-11.3 0 0 .905 2.25.905 2.25s29.782.024 29.782.024c16.38.013 31.357.437 33.282.942 14.785 3.879 23.609 8.632 32.14 17.311 6.952 7.072 12.86 14.66 12.86 16.517 0 .513 1.237 2.171 2.75 3.683 0 0 2.75 2.749 2.75 2.749s.275 74.374.275 74.374.274 74.374.274 74.374-4.11 7.263-4.11 7.263c-2.261 3.995-4.747 7.623-5.525 8.063s-1.414 1.834-1.414 3.099c0 1.55-2.225 4.387-6.825 8.7-3.754 3.52-7.691 6.946-8.75 7.611-5.238 3.292-10.677 6.234-12.687 6.863-1.231.385-3.444 1.709-4.918 2.941 0 0-2.681 2.24-2.681 2.24s-50.069.137-50.069.137-50.07.137-50.07.137-.08-7.764-.08-7.764" fill="#f73984" stroke="#f73984"/><g fill="#fdfdfd" stroke="#fdfdfd"><path d="m868.251 541.519c-15.604-4.394-24.227-13.285-28.291-29.175-1.813-7.087-1.96-11.262-1.96-55.504v-47.84h-10.441c-7.015 0-10.683-.391-11.179-1.194-.406-.657-.939-7.125-1.185-14.374-.421-12.422-.325-13.302 1.679-15.306 1.869-1.869 3.271-2.126 11.603-2.126h9.478s.272-18.189.272-18.189.273-18.189.273-18.189 13.5-4.291 13.5-4.291c14.576-4.633 17.162-5.045 18.857-3.003.707.852 1.2 9.005 1.373 22.75 0 0 .27 21.422.27 21.422h16.286c13.388 0 16.455.267 17.235 1.5 1.438 2.274 1.244 28.335-.221 29.8-.835.835-6.156 1.2-17.5 1.2h-16.3v42.875c0 23.581.281 44.281 4.345 52.099 1.089 5.445 9.67 7.341 21.845 4.826 4.183-.864 6.115-.895 6.897-.113.598.598 1.338 4.85 1.646 9.45s.864 8.588 1.237 8.863.42 2.962.104 5.972c0 0-.574 5.473-.574 5.473s-5 1.899-5 1.899c-6.808 2.586-26.8 3.272-34.249 1.175"/><path d="m481.751 542.469c-14.812-2.947-27.629-12.335-33.638-24.638-8.411-17.222-5.476-41.569 6.626-54.964 12.72-14.08 36.944-20.863 74.511-20.866 0 0 11.75-.001 11.75-.001v-6.885c0-13.182-4.717-21.872-14.46-26.639-5.991-2.931-11.849-3.39-22.081-1.726-7.576 1.232-11.191 3.092-17.025 8.762-2.54 2.468-4.971 4.488-5.404 4.488s-1.333 1.318-2 2.928-2.003 3.643-2.97 4.518c-1.618 1.464-2.306 1.344-8.659-1.519-3.796-1.71-8.026-3.578-9.401-4.15-3.781-1.573-10.389-4.965-11.36-5.83-1.051-.937 4.31-11.726 9.03-18.169 7.312-9.982 18.691-17.706 32.33-21.946 6.519-2.027 9.526-2.328 23-2.304 16.798.03 23.343 1.211 33.583 6.055 11.455 5.419 23.191 19.618 26.872 32.513 2.973 10.416 3.54 22.279 3.554 74.404.012 47.821-.124 52.1-1.689 53.25-1.159.851-5.914 1.25-14.889 1.25-15.427 0-15.375.03-16.359-9.474-.367-3.551-.886-6.674-1.153-6.94-.266-.266-2.945 2.007-5.952 5.053-5.613 5.686-15.183 11.035-21.609 12.078-1.847.3-3.358.936-3.358 1.414 0 1.338-21.661.848-29.249-.662m37.396-31.369c14.23-5.459 21.813-18.079 21.841-36.35 0 0 .012-7.75.012-7.75h-8.19c-4.504 0-10.692.428-13.75.952s-9.286 1.409-13.841 1.967c-13.301 1.63-21.877 6.487-24.273 13.746-.605 1.834-1.517 3.335-2.024 3.335-1.25 0-1.158 7.611.148 12.315 1.524 5.487 7.457 10.989 14.003 12.986 7.21 2.199 18.574 1.676 26.074-1.201"/><path d="m339.16 821.776c-9.01-.85-21.253-4.499-27.66-8.245-13.836-8.089-22.5-23.807-22.5-40.818 0-24.296 13.87-41.243 40-48.878 10.741-3.138 24.313-4.763 45.75-5.476 0 0 20.325-.675 20.325-.675s-.575-4.592-.575-4.592c-1.266-10.096-3.784-16.395-8.482-21.218-6.034-6.194-13.015-8.311-25.018-7.587-13.219.798-20.901 4.913-28.506 15.272-2.601 3.542-5.124 6.441-5.607 6.441s-4.368-1.631-8.633-3.624-10.229-4.731-13.254-6.085c-11.392-5.098-12-5.481-12-7.567 0-2.376 3.995-9.529 8.423-15.083 8.352-10.474 25.912-20.414 41.941-23.74 15.664-3.25 38-2.486 50.615 1.733 15.606 5.219 29.861 17.176 36.355 30.495 6.887 14.124 6.956 14.857 7.37 77.777.204 31.023.569 56.728.813 57.122s-1.235.994-3.287 1.333c-5.58.922-33.529.736-35.059-.234-.759-.481-1.748-4.216-2.306-8.707-.537-4.325-1.096-7.984-1.243-8.131s-1.77 1.738-3.607 4.19c-6.04 8.061-24.437 15.666-40.515 16.747-2.75.185-8.753-.017-13.34-.45m30.909-34.344c14.912-4.303 22.962-14.909 24.474-32.238 0 0 .715-8.194.715-8.194s-14.379.007-14.379.007c-34.715.017-49.165 6.628-49.165 22.493 0 9.01 5.38 15.564 15.228 18.552 4.465 1.355 17.495 1.005 23.127-.62"/><path d="m360.531 542.887c-17.953-2.615-34.526-11.813-45.115-25.038-13.905-17.367-19.082-35.463-18.123-63.349s8.797-46.832 26.225-63.387c12.22-11.608 25.252-16.759 45.055-17.807 34.684-1.836 59.525 17.325 68.965 53.194 2.027 7.7 3.959 31.7 3.044 37.804 0 0-.705 4.696-.705 4.696h-53.438-53.439v2.79c0 4.492 2.851 14.166 5.74 19.474 3.765 6.917 11.84 13.975 18.921 16.539 19.955 7.225 38.941.934 51.962-17.216 0 0 2.09-2.912 2.09-2.912s12.643 7.756 12.643 7.756c8.047 4.937 12.637 8.359 12.625 9.413-.054 4.746-13.667 20.832-22.985 27.159-14.45 9.813-33.789 13.75-53.465 10.884m44.841-105.137c-2.047-11.509-6.116-19.663-12.569-25.187-12.82-10.974-36.845-9.114-48.468 3.752-4.246 4.7-9.316 15.123-10.062 20.688 0 0-.536 3.997-.536 3.997h36.106 36.107s-.578-3.25-.578-3.25"/><path d="m754 818.271c-.825-.314-1.831-1.066-2.235-1.671s-.742-37.348-.75-81.65c-.012-61.334.271-80.836 1.185-81.75 1.808-1.808 36.157-1.68 37.668.141.612.737 1.454 6.423 1.872 12.634 0 0 .76 11.294.76 11.294s3.192-4.934 3.192-4.934c4.073-6.296 12.711-14.479 18.289-17.325 9.085-4.635 23.533-7.509 32.778-6.519 9.598 1.028 9.448.652 9.067 22.575-.179 10.324-.656 19.1-1.059 19.502s-7.378.776-15.5.831c-14.418.098-14.926.176-21.468 3.275-7.469 3.539-14.597 10.05-17.735 16.2-5.173 10.14-5.404 12.555-5.797 60.626-.329 40.271-.539 45.131-2.008 46.25-1.179.898-6.589 1.228-19.2 1.171-9.657-.043-18.234-.336-19.059-.65"/></g><path d="m511.01 287.864c.018-2.537 5.07-12.256 8.746-16.823 12.395-15.402 25.439-27.847 41.744-39.829 3.85-2.829 8.8-6.472 11-8.094 8.198-6.046 33.533-21.077 49.5-29.369 40.051-20.799 91.284-40.467 146-56.051 37.467-10.671 37.36-10.644 38.719-9.516.897.744 1.281 4.32 1.281 11.94 0 7.873.336 10.878 1.216 10.878.669 0 7.006-1.826 14.084-4.057s13.618-3.915 14.534-3.74c1.407.268 1.744 2.145 2.166 12.062 0 0 .5 11.743.5 11.743s-5 1.458-5 1.458c-2.75.802-9.05 3.101-14 5.108s-11.475 4.499-14.5 5.538-6.4 2.297-7.5 2.797c-3.183 1.446-20.345 8.066-28 10.801-3.85 1.376-8.35 3.068-10 3.76s-4.8 1.949-7 2.793-6.422 2.481-9.383 3.636-6.336 2.1-7.5 2.098c-2.297-.003-20.799 6.864-21.617 8.023-.503.713-16.899 7.169-29 11.42-3.575 1.256-9.425 3.44-13 4.853-8.844 3.496-52.726 20.271-62 23.7-4.125 1.525-10.425 3.903-14 5.285-22.716 8.778-34.777 13.347-44.103 16.706-5.832 2.1-15.732 5.857-22 8.347-12.591 5.002-20.903 6.806-20.887 4.533" fill="#fce0c2" stroke="#fce0c2"/><path d="m506.633 288.367c-2.426-1.314-15.498-6.34-75.633-29.08-3.575-1.352-10.55-3.969-15.5-5.816-9.574-3.572-10.738-4.014-34-12.899-8.25-3.151-24.45-9.28-36-13.619s-24.6-9.285-29-10.991c-10.985-4.258-19.065-7.3-47.5-17.888-13.475-5.017-25.441-9.519-26.591-10.004s-14.425-5.478-29.5-11.094-28.197-10.902-29.159-11.748c-1.361-1.196-1.747-3.115-1.735-8.633.008-3.902.406-7.711.883-8.464.908-1.433 3.14-1.023 18.102 3.33 7.388 2.149 17.763 4.661 21.75 5.265 0 0 3.25.493 3.25.493v-6.732c0-5.618-.229-6.542-6.681-7.04-3.45.626-6.319-2.233-6.319-6.298 0-5.566 1.005-5.429 36.5 4.979 43.382 12.72 73.76 22.451 91.5 29.31 4.675 1.807 12.325 4.758 17 6.558 16.912 6.511 40.44 16.983 55.5 24.7 18.865 9.667 49.511 29.418 61.226 39.46 11.683 10.015 30.274 29.18 30.274 31.209 0 1.294 4.81 7.491 5.376 6.925.637-.637.85.705 1.025 6.46.111 3.627-.608 3.871-4.768 1.617" fill="#fbc957" stroke="#fbc957"/><path d="m869.672 820.546c-11.581-3.062-18.69-12.366-18.65-24.41.014-4.247.678-8.076 1.844-10.636 2.144-4.708 8.873-11.075 13.944-13.194 4.727-1.975 15.698-1.981 20.38-.011 5.799 2.44 12.443 9.18 14.236 14.442 3.085 9.055 1.472 15.951-8.273 27.263-.466 0-2.472 1.579-4.459 3.509-3.013 2.926-4.491 3.575-8.903 3.911-2.91.221-7.464-.172-10.119-.874" fill="#fdfdfd" stroke="#fdfdfd"/><path d="m643.874 822.018c-49.186-6.156-79.66-45.517-74.817-96.634 3.065-32.349 19.381-56.843 46.214-69.377 14.073-6.574 18.906-7.502 38.729-7.431 15.864.057 18.27.302 25.737 2.623 22.928 7.127 40.51 24.468 48.232 47.57 1.605 4.802 3.39 11.656 3.967 15.231 1.305 8.088 1.363 28.979.086 31-.822 1.3-8.877 1.54-60.565 1.795 0 0-59.618.294-59.618.294s.7 4.206.7 4.206c3.344 20.095 18.089 32.95 39.499 34.438 8.194.569 14.457-.449 23.45-3.814 4.301-1.609 7.786-4.07 13.515-9.544 4.246-4.056 8.208-7.375 8.805-7.375 1.401 0 26.109 14.732 28.542 17.018 2.224 2.09 1.651 3.47-5.107 12.291-9.776 12.759-25.955 22.371-43.962 26.116-8.93 1.857-25.126 2.629-33.407 1.593m46.879-108.824c-.761-5.676-5.286-14.471-9.878-19.203-10.579-10.901-30.578-13.876-46.357-6.896-9.34 4.131-19.076 16.442-21.131 26.718 0 0-.637 3.187-.637 3.187h39.257 39.256s-.51-3.806-.51-3.806" fill="#fdfdfd" stroke="#fdfdfd"/><path d="m650 543.431c-10.047-1.742-14.486-3.078-21.5-6.472-23.946-11.586-37.887-33.46-41.582-65.247-5.171-44.482 16.225-83.798 52.082-95.706 8.333-2.767 23.924-3.705 33.827-2.035 9.801 1.653 19.986 6.866 26.657 13.644 2.915 2.962 5.461 5.385 5.658 5.385s.201-18.393.008-40.873c0 0-.351-40.873-.351-40.873s2.323-1.627 2.323-1.627c1.881-1.318 5.028-1.627 16.544-1.627 13.562 0 14.292.103 15.777 2.223 1.387 1.98 1.557 14.539 1.557 114.928 0 101.127-.161 112.868-1.571 114.278-1.282 1.282-4.206 1.571-15.878 1.571-16.614 0-16.71-.049-17.351-8.917-.503-6.959-1.902-7.397-7.541-2.357-10.322 9.226-20.726 13.186-36.159 13.764-5.5.206-11.125.179-12.5-.059m31.174-36.177c9.122-4.334 13.945-8.991 18.619-17.974 11.905-22.883 8.375-55.941-7.667-71.793-14.15-13.983-38.739-14.866-53.083-1.907-4.614 4.168-10.376 11.994-10.376 14.092 0 .73-.307 1.328-.682 1.328-1.141 0-4.011 10.054-5.138 18-1.258 8.866-.507 21.393 1.739 29.032 2.193 7.458 5.473 14.968 6.537 14.968.482 0 .877.613.877 1.363 0 2.19 9.646 10.592 14.783 12.876 7.268 3.232 10.031 3.709 19.391 3.352 7.143-.273 9.791-.862 15-3.337" fill="#fdfdfd" stroke="#fdfdfd"/><path d="m146 818.271c-.825-.314-1.831-1.066-2.235-1.671-1.119-1.675-.91-226.823.212-228.6 1.406-2.228 39.581-2.794 42.523-.631 1.98 1.456 1.996 2.409 1.628 95.166-.312 78.603-.151 93.836 1 94.565.755.478 20.52.877 43.922.885 31.744.011 42.855.32 43.75 1.215.714.714 1.2 4.156 1.2 8.5 0 4.2.425 7.3 1.075 8.846-.544-.336-.915 3.63-.901 9.632.021 8.669-.245 10.401-1.766 11.513-1.434 1.048-14.452 1.293-65.349 1.23-34.957-.043-64.234-.336-65.059-.65" fill="#fdfdfd" stroke="#fdfdfd"/><path d="m147 540.271c-.825-.314-1.831-1.066-2.235-1.671s-.742-51.356-.75-112.779c-.014-100.206.146-111.84 1.556-113.25 1.367-1.367 5.946-1.568 35.25-1.548 47.035.032 58.82 1.129 74.299 6.921 10.993 4.113 22.124 13.186 28.86 23.525 2.34 3.592 4.652 6.531 5.137 6.531s.883.915.883 2.032.953 4.83 2.119 8.25c1.602 4.7 2.328 10.248 2.974 22.718.549 10.596.506 16.619-.119 16.833-.536.183-.974 1.184-.974 2.224 0 2.137-5.782 17.161-6.903 17.938-.401.278-2.412 3.065-4.469 6.193-4.862 7.394-14.516 16.318-22.93 21.194-3.684 2.135-6.698 3.991-6.698 4.124s4.87 8.061 10.822 17.618 15.688 25.251 21.636 34.876 13.228 21.373 16.178 26.108 5.364 9.295 5.364 10.134-1.013 1.796-2.25 2.128c-3.465.929-39.075.711-40.588-.248-.736-.466-12.676-19.697-26.534-42.735 0 0-25.197-41.887-25.197-41.887h-14.966-14.965s-.254 41.5-.254 41.5c-.23 37.597-.412 41.618-1.941 42.75-1.73 1.281-30.14 1.726-33.305.521m82.211-122.807c12.575-3.088 21.702-10.932 25.377-21.811 2.618-7.75 1.663-22.575-1.926-29.911-3.336-6.818-9.009-11.932-16.583-14.947-5.113-2.035-7.607-2.252-29.829-2.586 0 0-24.25-.365-24.25-.365v35.411c0 19.476.299 35.711.664 36.076 1.186 1.186 40.541-.392 46.547-1.867" fill="#fdfdfd" stroke="#fdfdfd"/><path d="m334.273 437.003c.746-5.565 5.816-15.988 10.062-20.688 11.623-12.866 35.648-14.726 48.468-3.752 6.453 5.524 10.522 13.678 12.569 25.187 0 0 .578 3.25.578 3.25h-36.107-36.106s.536-3.997.536-3.997" fill="#058833" stroke="#058833"/><path d="m241.544 409.138c-.441-1.389-1.878-2.173-4.836-2.638-6.51-1.023-10.523-2.685-11.014-4.562-.347-1.328-1.54-1.701-5.321-1.667-4.85.044-9.439-1.221-20.875-5.756-3.301-1.309-8.307-2.686-11.124-3.06 0 0-5.122-.679-5.122-.679s-.617-5.138-.617-5.138c-.34-2.826-.621-12.486-.626-21.466 0 0-.009-16.328-.009-16.328s24.25.365 24.25.365c22.222.334 24.716.551 29.829 2.586 7.574 3.015 13.247 8.129 16.583 14.947 2.321 4.745 2.85 7.301 3.174 15.378.464 11.542-1.009 16.958-6.627 24.373-4.16 5.491-6.696 6.697-7.665 3.645" fill="#058833" stroke="#058833"/><path d="m518.869 820.109c-20.02-4.505-31.903-15.788-37.503-35.609-1.447-5.122-1.758-12.62-2.118-51.25 0 0-.422-45.25-.422-45.25h-13.758c-17.929 0-17.068.903-17.068-17.894 0-7.902.46-15.099 1.035-16.172.95-1.776 2.223-1.934 15.5-1.934h14.465v-19.929c0-21.696.175-22.407 5.82-23.665 1.474-.328 9.346-2.355 17.494-4.502s15.595-3.904 16.55-3.904c3.898 0 4.136 1.564 4.136 27.2v24.8h19.965c18.715 0 20.03.121 21 1.934.573 1.07 1.035 8.216 1.035 16 0 19.238 1.496 18.066-23.051 18.066h-19.051s.301 41.25.301 41.25c.295 40.39.348 41.337 2.518 45.395 4.142 7.746 15.15 10.356 29.463 6.987 3.124-.735 6.232-.995 6.907-.578 1.721 1.063 4.321 32.75 2.834 34.541-.591.712-3.178 1.972-5.748 2.799-12.29 3.954-27.482 4.6-40.304 1.715" fill="#fdfdfd" stroke="#fdfdfd"/><path d="m437.768 475.079c-.76-1.086-2.817-2.064-4.73-2.25-5.665-.551-4.857-2.68 1.147-3.024 0 0 5.315-.305 5.315-.305s.914-4.355.914-4.355c.599-2.851.467-9.415-.381-19-2.011-22.726-2.051-26.187-.335-28.806.837-1.278 1.223-3.102-2.965-5.31-.838-1.196-2.332-2.294-3.32-2.439-.995-.146-3.501-3.126-5.616-6.677-5.338-8.961-16.293-19.124-25.157-23.338-10.83-5.149-20.746-6.974-34.067-6.269-13.145.696-20.489 2.462-30.437 7.32-12.909 6.303-27.722 22.589-33.153 36.448-2.081 5.31-3.376 7.344-4.783 7.508-.385.045-1.985.442-3.556.884-1.975.556-3.897.307-6.233-.807-4.127-1.968-4.075-3.653.462-14.935 1.72-4.277 3.127-8.627 3.127-9.667s.44-2.041.977-2.224c.551-.188 1.162-6.866 1.401-15.333.233-8.25.183-13.875-.112-12.5-.403 1.881-1.131.27-2.938-6.5-1.321-4.95-2.667-10.275-2.991-11.834s-1.602-3.929-2.841-5.265-2.524-3.793-2.857-5.458c-.658-3.289-10.053-13.943-12.295-13.943-2.359 0-11.233-6.42-11.29-8.168-.102-3.13-1.17-4.614-2.981-4.141-1.001.262-2.043-.169-2.351-.973-.454-1.184-1.561-1.27-6.159-.478-3.952.681-7.443.608-11.834-.248-3.961-.772-21.431-1.399-47.979-1.722 0 0-41.75-.508-41.75-.508s.07-77.631.07-77.631c.039-42.697.457-78.531 4.18-78.595 2.78.829 83.913 30.962 88.75 32.962 1.925.796 14.525 5.553 28 10.572 28.549 10.634 36.578 13.658 47.5 17.892 4.4 1.706 17.45 6.652 29 10.991s27.75 10.468 36 13.619c23.262 8.885 24.426 9.327 34 12.899 4.95 1.847 11.925 4.464 15.5 5.816 59.908 22.654 73.153 27.74 75.825 29.122 0 0 3.158 1.634 3.158 1.634s-.136 40.957-.136 40.957c-.122 36.683-.303 41.002-1.741 41.396-.883.242-4.29.747-7.57 1.121-18.783 2.144-36.672 12.695-45.536 26.859-2.918 4.662-3.878 5.508-5.771 5.084-4.611-1.033-9.872 7.762-5.479 9.159.962.306 3.55 1.497 5.75 2.646 6.193 3.234 6.781 3.516 10.25 4.914 1.788.72 3.25 1.566 3.25 1.881s2.725 1.874 6.055 3.466c7.07 3.379 8.335 3.011 11.605-3.37 2.886-5.634 11.445-13.649 16.727-15.666 2.349-.897 6.035-1.487 8.192-1.311 0 0 3.921.321 3.921.321s.217 17.615.217 17.615.217 17.615.217 17.615-7.66.694-7.66.694c-12.303 1.115-25.823 4.755-34.94 9.406-6.227 3.177-14.499 11.323-17.834 17.565-1.72 3.22-3.52 5.418-4.218 5.154-.67-.254-1.484-.031-1.809.495-.999 1.617-4.286 1.061-5.705-.965" fill="#058833" stroke="#058833"/><path d="m774.682 539.75c-1.58-1.161-1.682-6.957-1.441-81.75.195-60.519.549-80.5 1.426-80.5.642 0 1.504-.337 1.916-.75 1.145-1.145 26.281-.893 28.483.285 1.888 1.01 1.934 2.968 1.934 81.3 0 61.095-.287 80.552-1.2 81.465-1.704 1.704-28.791 1.661-31.118-.05" fill="#fdfdfd" stroke="#fdfdfd"/><path d="m654.5 510.129c-6.332-1.673-12.626-5.167-17.467-9.695-2.768-2.589-5.033-5.321-5.033-6.071s-.395-1.363-.877-1.363c-1.064 0-4.344-7.51-6.537-14.968-2.246-7.639-2.997-20.166-1.739-29.032 1.127-7.946 3.997-18 5.138-18 .375 0 .682-.598.682-1.328 0-2.098 5.762-9.924 10.376-14.092 14.344-12.959 38.933-12.076 53.083 1.907 16.042 15.852 19.572 48.91 7.667 71.793-4.674 8.983-9.497 13.64-18.619 17.974-5.209 2.475-7.857 3.064-15 3.337-4.771.182-10.024-.026-11.674-.462" fill="#de207f" stroke="#de207f"/><path d="m493.516 512.332c-2.741-.841-6.196-2.392-7.679-3.448-2.959-2.107-7.197-8.345-6.67-9.817.183-.511 5.508.857 11.833 3.04 15.804 5.455 17.943 6.079 19.301 5.626 1.483-.494 3.699 1.65 3.699 3.579 0 3.008-12.048 3.608-20.484 1.02" fill="#6c4cbd" stroke="#6c4cbd"/><path d="m524.995 504.991c-.726-1.357-1.792-1.865-3.285-1.566-1.216.244-3.683.689-5.483.989 0 0-3.273.545-3.273.545s.273-17.665.273-17.665.273-17.665.273-17.665 5-1.295 5-1.295c2.75-.712 8.938-1.304 13.75-1.315 0 0 8.75-.019 8.75-.019s-.012 7.75-.012 7.75c-.019 12.497-3.127 21.533-9.801 28.5-4.137 4.318-4.725 4.483-6.192 1.741" fill="#de207f" stroke="#de207f"/><path d="m1023 678.77v-95.23s-2.75 5.149-2.75 5.149c-4.118 7.71-13.843 18.859-19.4 22.241-9.326 5.676-14.813 8.237-18.772 8.762-4.562.605-4.571.6-2.754-1.452 1.003-1.133 2.84-2.315 4.083-2.627 2.002-.502 7.327-3.326 13.018-6.903 1.059-.665 4.996-4.091 8.75-7.611 4.6-4.313 6.825-7.15 6.825-8.7 0-1.265.638-2.659 1.417-3.099s3.142-3.725 5.25-7.3c0 0 3.833-6.5 3.833-6.5s.512-75.5.512-75.5c.365-53.84.581-25.366.75 99.25.131 96.112.013 174.75-.262 174.75s-.5-42.853-.5-95.23" fill="#ed9b4f" stroke="#ed9b4f"/><path d="m188.188 700.5c-.089-42.35.081-77.9.377-79 .535-1.99 1.28-1.999 145.234-1.757 79.583.134 144.81.584 144.949 1s-64.886.757-144.498.757h-144.75s-.257 74-.257 74c-.141 40.7-.4 75.8-.575 78s-.391-30.65-.48-73" fill="#555da2" stroke="#555da2"/><path d="m523 637.099v-14.901s199.75-.502 199.75-.502c109.862-.276 209.998-.611 222.523-.743s22.989-.025 23.253.239c.929.929-140.771 1.806-291.776 1.807 0 0-152.75.001-152.75.001v13.978 13.979s19.25.294 19.25.294 19.25.295 19.25.295-19.75.227-19.75.227-19.75.227-19.75.227z" fill="#f3494c" stroke="#f3494c"/><path d="m189.21 623.5c.316-1.989 1.09-2 144.72-2 95.38 0 144.517.339 144.737 1 .221.664-48.075.922-143.868.767-113.393-.183-144.384.03-145.054 1-.573.829-.748.578-.535-.767" fill="#27785e" stroke="#27785e"/><path d="m511.457 179.5c0-22.55.131-31.918.292-20.817s.161 29.551 0 41-.292 2.367-.292-20.183" fill="#dc7d6c" stroke="#dc7d6c"/><path d="m.136 429.185c-.298-7.258 9.274-23.875 18.092-31.409 6.606-5.644 16.524-11.564 22.697-13.548 3.778-1.215 12.323-1.441 49.075-1.306 24.475.09 46.637-.247 49.25-.75 3.801-.731 4.75-.64 4.75.457 0 1.141-7.521 1.371-44.809 1.371-37.851 0-45.11.228-46.75 1.468-1.068.807-3.034 1.483-4.37 1.5-4.742.062-16.838 4.841-19.075 7.536-.673.81-1.643 1.214-2.156.897-1.726-1.067-16.81 15.749-19.909 22.196-1.612 3.353-2.931 6.56-2.931 7.127s-.648 1.569-1.44 2.226-1.631 2.175-1.864 3.373c-.283 1.455-.469 1.077-.56-1.138" fill="#8a8874" stroke="#8a8874"/><path d="m523.178 621.489c.657-.657 351.004-.641 351.661.016.272.272-78.856.495-175.839.495s-176.103-.23-175.822-.511" fill="#df3659" stroke="#df3659"/><path d="m43.545 622.073c-.315-.51-2.254-1.449-4.309-2.087-5.548-1.722-13.494-5.646-15.818-7.811-3.026-2.819-6.082-4.241-7.744-3.603-5.079.322.752-2.65-2.57-5.107-1.707-1.944-3.104-4.138-3.104-4.877s-.712-1.934-1.582-2.656c-3.14-2.606-7.582-13.078-7.986-18.826-.294-4.188-.185-4.847.433-2.606 3.241 11.752 19.199 32.433 23.145 29.994.473-.292 2.087 1.078 3.588 3.046 3.35 4.392 7.806 6.827 16.402 8.882 6.586 2.028 7.555 3.548 3.453 5.417-3.071 1.399-3.183 1.406-3.908.234" fill="#3c8392" stroke="#3c8392"/><path d="m289.25 429.499c-2.888-1.312-5.25-2.096-5.25-1.742s-.501.142-1.113-.47c-.817-.817-.502-2.201 1.187-5.206 1.446-2.573 2.568-3.659 3.021-2.927.396.641.5 1.738.231 2.438-.648 1.69 5.343 4.732 8.052 4.089 7.112-1.687 6.68-1.77 5.989 1.125-1.41 5.91-3.846 6.451-12.117 2.693" fill="#3d6e7f" stroke="#3d6e7f"/><path d="m141.755 719.75s-.255-96.25-.255-96.25-45.667-.5-45.667-.5c-25.117-.275-45.893-.725-46.168-1s20.614-.5 46.418-.5h46.916s.001 97.25.001 97.25c0 53.487-.223 97.25-.495 97.25s-.61-43.312-.75-96.25" fill="#61c091" stroke="#61c091"/><path d="m379.5 1s-129-.511-129-.511 130.25-.245 130.25-.245c86.33-.162 130.25.093 130.25.756 0 .55-.562.89-1.25.756s-59.3-.475-130.25-.756" fill="#adbe61" stroke="#adbe61"/><path d="m503.5 506.409c-2.2-.827-8.275-2.948-13.5-4.713s-10.062-3.571-10.75-4.012c-.765-.491-1.204-2.817-1.132-5.993.092-4.023.26-4.537.75-2.284.542 2.494 1.543 3.235 7.046 5.214 3.528 1.269 6.88 2.773 7.45 3.343s1.869 1.036 2.886 1.036 3.097.646 4.623 1.435 4.092 1.576 5.701 1.75c1.614.174 3.447 1.206 4.088 2.302 2.212 3.782-.369 4.474-7.162 1.922" fill="#3d6e7f" stroke="#3d6e7f"/><path d="m509 948.3c0-24.56.25-30.451 1.25-29.451.92.92 1.316 7.903 1.498 26.45.254 25.858-.166 33.701-1.809 33.701-.565 0-.939-12.236-.939-30.7" fill="#208530" stroke="#208530"/><path d="m317 656.291c0-7.098 13.535-12.649 17.397-7.135 1.469 2.097 1.3 2.249-6.194 5.586-11.239 5.005-11.203 4.999-11.203 1.549" fill="#198241" stroke="#198241"/><path d="m887 819.129c0-.479 1.572-1.942 3.493-3.25s3.496-2.777 3.5-3.264 1.02-1.868 2.257-3.069 3.078-3.722 4.09-5.602c1.758-3.267 1.902-3.333 3.25-1.49 1.635 2.236 1.863 6.148.41 7.046-.55.34-1 1.474-1 2.52 0 2.896-3.501 5.537-7.715 5.821-2.08.14-4.209.683-4.733 1.207-1.192 1.192-3.552 1.246-3.552.081" fill="#ff9f6a" stroke="#ff9f6a"/><path d="m442 482.969c0-.533-1.82-.969-4.044-.969-2.928 0-4.787-.69-6.739-2.5-1.483-1.375-3.608-2.5-4.722-2.5s-3.704-.9-5.756-2-4.585-2-5.628-2c-1.571 0-3.111-1.773-3.111-3.582 0-.23 6.188-.335 13.75-.233s11.358.352 8.435.555c-6.002.417-6.791 2.54-1.147 3.089 1.913.186 3.97 1.164 4.73 2.25 1.488 2.124 4.241 2.512 5.919.834 1.588-1.588 2.415.324 1.696 3.92-.555 2.777-3.383 5.398-3.383 3.136" fill="#3d6e7f" stroke="#3d6e7f"/><path d="m217.689 155.817c-2.669-.973-2.726-1.119-1.125-2.888.963-1.065 1.459-2.735 1.783-7.712-.585-2.235 3.48-2.83 4.323-.633.433 1.128.883 1.202 1.947.319 1.154-.958 1.383-.05 1.383 5.475 0 6.577-.019 6.621-2.75 6.543-1.512-.043-4.015-.54-5.561-1.104" fill="#cdca39" stroke="#cdca39"/><path d="m511.5 423.904v-19.095s5 .661 5 .661c5.083.672 14.22 4.142 13.309 5.054-.275.275-2.482-.368-4.904-1.43s-5.98-2.079-7.905-2.262c0 0-3.5-.332-3.5-.332s-.183 17.978-.183 17.978c-.101 9.888-.551 18.1-1 18.25s-.817-8.321-.817-18.824" fill="#d43e78" stroke="#d43e78"/><path d="m605.002 396.75c.002-2.869 7.203-9.75 10.204-9.75 1.897 0 1.341.9-3.706 6-3.266 3.3-6.064 6-6.219 6s-.28-1.013-.279-2.25" fill="#c7337f" stroke="#c7337f"/><path d="m509.053 1001.033c.059-8.782-.228-16.507 2.422-17.033.637 0 .585 24.771-.06 28.808-1.413 8.836-2.465 3.591-2.362-11.775" fill="#1ca650" stroke="#1ca650"/><path d="m509.95 436.25c-.028-3.712-.14-12.037-.25-18.5s.137-11.75.55-11.75.75 8.325.75 18.5-.225 18.5-.5 18.5-.522-3.038-.55-6.75" fill="#3a7445" stroke="#3a7445"/><path d="m511.415 424c0-10.175.149-14.337.33-9.25s.181 13.413 0 18.5-.33.925-.33-9.25" fill="#855c5b" stroke="#855c5b"/><path d="m511 571.906c0-16.448.337-29.904.75-29.902.412.002.821 12.887.908 28.634.115 20.721.484 28.831 1.335 29.357.776.479.467.914-.908 1.273-2.078.544-2.085.456-2.085-29.362" fill="#9b37a1" stroke="#9b37a1"/><path d="m559 818.948c0-.521.625-.948 1.389-.948s2.348-.787 3.519-1.75c2.122-1.744 2.126-1.807.735-18.25-.767-9.075-1.226-16.688-1.019-16.917 1.029-1.14 1.566 1.956 2.938 16.928 1.366 14.911 1.354 16.424-.133 18.067-1.937 2.14-7.429 4.262-7.429 2.87" fill="#ef5946" stroke="#ef5946"/><path d="m412 660.854c-3.082-2.564-14.438-8.293-18.5-9.333-1.65-.422-2.428-.978-1.729-1.235s2.558-.018 4.13.53c2.211.771 3.199.655 4.363-.509 1.34-1.34 1.795-1.315 4.146.226 1.676 1.098 2.451 2.331 2.12 3.374-.359 1.131.561 2.225 2.95 3.512 3.595 1.936 7.515 5.606 5.925 5.548-.498-.018-2.03-.969-3.405-2.113" fill="#238b3f" stroke="#238b3f"/><path d="m512.42 489.5c-.001-11 .146-15.636.325-10.303s.18 14.333.001 20-.325 1.303-.326-9.697" fill="#d43e78" stroke="#d43e78"/><path d="m468 427.02c-6.764-3.598-4.886-4.009 2.112-.463 5.736 2.907 6.714 2.563 9.912-3.486 1.038-1.964 1.908-2.85 1.932-1.969.07 2.536-4.327 8.376-6.49 8.621-1.081.122-4.441-1.094-7.466-2.703" fill="#1d8a40" stroke="#1d8a40"/><path d="m436.47 422.861c-.396-1.805-1.581-5.286-2.631-7.736-2.4-5.6-1.09-7.387 2.544-3.468 3.429 2.847 4.286.344 3.603 5.066-.748 1.527-1.501 4.09-1.674 5.695-.444 4.112-1.006 4.247-1.842.443" fill="#1d8a40" stroke="#1d8a40"/><path d="m510.089 503.5c-.198-.55-.429-8.538-.514-17.75 0 0-.155-16.75 3.198-16.065-1.536.403-1.759 2.351-2.025 17.634-.164 9.45-.461 16.731-.659 16.181" fill="#3a7445" stroke="#3a7445"/><path d="m295.115 381.5c.046-4.95.441-10.125.877-11.5.492-1.552.76 1.39.707 7.753-.047 5.639-.442 10.814-.877 11.5s-.753-2.803-.707-7.753" fill="#1d8a40" stroke="#1d8a40"/><path d="m395.2 811.8c-.66-.66-1.207-1.897-3.439-2.981-.285-.742.715-2.825 2.222-4.63 0 0 2.74-3.282 2.74-3.282s.628 3.797.628 3.797c1.27 7.685.611 9.858-2.151 7.096" fill="#1d8a40" stroke="#1d8a40"/><path d="m511.415 488c0-10.175.149-14.337.33-9.25s.181 13.413 0 18.5-.33.925-.33-9.25" fill="#855c5b" stroke="#855c5b"/><path d="m510.413 569.5c.001-9.9.151-13.814.333-8.699s.181 13.215-.002 18-.332.599-.331-9.301" fill="#8244b2" stroke="#8244b2"/><path d="m442.667 414.333c-1.389-1.389-.577-4.513 1.788-6.878 2.64-2.64 3.357-2.861 5.296-1.63 1.836 1.166-2.186 9.175-4.608 9.175-.996 0-2.109-.3-2.476-.667" fill="#1d8a40" stroke="#1d8a40"/><path d="m386.698 717.27c3.159-.286 4.06-.738 3.643-1.825-.305-.795-.057-1.445.552-1.445 1.34 0 1.471-3.226.184-4.55-1.055-1.086-.257-6.45.96-6.45.847 0 1.43 2.43 2.46 10.25 0 0 .626 4.75.626 4.75s-6.312-.175-6.312-.175c-4.831-.134-5.326-.264-2.113-.555" fill="#1d8a40" stroke="#1d8a40"/><path d="m701.78 389.89c-1.254-1.71-4.664-4.823-7.578-6.917-4.641-3.336-5.044-3.889-3.25-4.458 2.908-.923 5.612.17 7.482 3.024.887 1.354 2.502 2.461 3.589 2.461 1.673 0 1.998-.73 2.111-4.75 0 0 .133-4.75.133-4.75s.779 5 .779 5c1.118 7.179 1.111 13.5-.016 13.5-.534 0-1.996-1.399-3.25-3.11" fill="#c7337f" stroke="#c7337f"/><path d="m236 411.585c-1.375-.734-5.544-2.09-9.265-3.011-6.637-1.644-17.301-5.331-23.235-8.034-1.65-.752-4.35-1.608-6-1.903s-5.25-1.307-8-2.249-5.562-1.849-6.25-2.018c-.831-.204-1.194-2.077-1.082-5.589.131-4.103.254-4.472.553-1.653.377 3.549.498 3.643 5.58 4.317 2.857.379 7.896 1.761 11.197 3.07 11.436 4.535 16.025 5.8 20.875 5.756 3.781-.034 4.974.339 5.321 1.667.489 1.869 4.503 3.54 10.925 4.547 2.992.469 4.413 1.29 5.191 2.997.853 1.871.76 2.469-.452 2.934-2.042.784-2.454.72-5.358-.831" fill="#3d6e7f" stroke="#3d6e7f"/><path d="m382.5 648.943c-2.2-.455-8.05-.905-13-1-6.61-.127-8.366-.413-6.61-1.078 2.541-.962 20.296.469 25.61 2.063 2.732.82 2.777.897.5.871-1.375-.016-4.3-.401-6.5-.856" fill="#198241" stroke="#198241"/><path d="m252 316.939c-4.125-1.548-7.05-2.862-6.5-2.92s2.947-.482 5.327-.942c3.428-.662 4.444-.533 4.888.624.314.819 1.35 1.254 2.358.99 1.773-.464 2.927 1.071 2.927 3.891 0 1.756.114 1.776-9-1.643" fill="#1d8a40" stroke="#1d8a40"/><path d="m74.25 621.251c12.512-.159 32.988-.159 45.5 0s2.275.288-22.75.288-35.263-.129-22.75-.288" fill="#3c8392" stroke="#3c8392"/><path d="m513.53 509.311c-.76-4.054.305-5.271 4.638-5.296 1.468-.008 3.345-.275 4.173-.593 1.827-.701 4.316 3.321 2.919 4.718-.509.509-3.204 1.791-5.989 2.849 0 0-5.065 1.924-5.065 1.924s-.676-3.602-.676-3.602" fill="#cc1c7b" stroke="#cc1c7b"/><path d="m49.999 620.25c-.001-.682 34.778-.669 77.001.029 9.075.15-4.537.374-30.25.497s-46.751-.114-46.751-.526" fill="#555da2" stroke="#555da2"/><path d="m511.243 67.75s-.243-67.75-.243-67.75h131.667c72.417 0 131.442.224 131.167.499s-59.297.504-131.16.509c0 0-130.66.009-130.66.009s-.264 67.241-.264 67.241-.264 67.242-.264 67.242-.243-67.75-.243-67.75" fill="#dc7d6c" stroke="#dc7d6c"/><path d="m613.387 713.813c2.055-10.276 11.791-22.587 21.131-26.718 15.779-6.98 35.778-4.005 46.357 6.896 4.592 4.732 9.117 13.527 9.878 19.203 0 0 .51 3.806.51 3.806h-39.256-39.257s.637-3.187.637-3.187" fill="#f94d30" stroke="#f94d30"/><path d="m513.667 441.333c-.997-.997-.806-34.13.201-34.752.917-.567 7.942 1.225 14.619 3.729 7.832 2.937 12.513 12.216 12.513 24.805v6.885h-13.333c-7.333 0-13.633-.3-14-.667" fill="#de207f" stroke="#de207f"/><path d="m512 331.117v-41.884c3.618-2.426 3.618 2.356.959 1.733 0 0 .063 40.459.063 40.459s.063 40.459 7.478 41.239c0 0-4.25.168-4.25.168s-4.25.168-4.25.168z" fill="#d43e78" stroke="#d43e78"/><path d="m509.272 372.306c1.665-.434 1.755-2.929 1.5-41.384-.149-22.508.065-40.922.478-40.922s.75 18.675.75 41.5v41.5s-2.25-.116-2.25-.116c-1.727-.089-1.838-.224-.478-.578" fill="#855c5b" stroke="#855c5b"/><path d="m509.899 365.75c-.264-16.341.232-74.214.64-74.622.254-.254.461 17.838.461 40.205s-.225 40.667-.5 40.667-.545-2.812-.601-6.25" fill="#3a7445" stroke="#3a7445"/><path d="m509.049 855.873s.137-37.127.137-37.127-3.843-1.792-3.843-1.792c-4.818-2.247-3.309-2.489 2.259-.362 0 0 4.169 1.592 4.169 1.592s-.307 30.158-.307 30.158c-.169 16.587-.343 33.421-.386 37.408-.047 4.319-.5 7.25-1.122 7.25-.709 0-1-11.917-.907-37.127" fill="#208530" stroke="#208530"/><path d="m182.669 419.336c-.368-.368-.669-6.171-.669-12.896v-12.227s4.13.927 4.13.927c2.271.51 5.032 1.412 6.137 2.003s3.409 1.294 5.121 1.561 4.912 1.285 7.112 2.263c4.839 2.151 17.93 6.545 25.594 8.591 3.077.821 6.452 2.127 7.5 2.902 1.802 1.332 1.701 1.496-1.83 2.982-2.055.865-5.88 1.998-8.5 2.518-5.784 1.147-43.655 2.316-44.595 1.376" fill="#6c4cbd" stroke="#6c4cbd"/><path d="m346.942 788.052c-9.848-2.988-15.228-9.542-15.228-18.552 0-15.865 14.45-22.476 49.165-22.493 0 0 14.379-.007 14.379-.007s-.715 8.194-.715 8.194c-1.512 17.329-9.562 27.935-24.474 32.238-5.632 1.625-18.662 1.975-23.127.62" fill="#058833" stroke="#058833"/><path d="m783.5 352.939c-1.65-.484-4.745-2.324-6.879-4.089-15.066-12.462-6.163-38.729 13.161-38.828 12.014-.062 21.218 9.472 21.218 21.978 0 15.129-13.159 25.149-27.5 20.939" fill="#fdfdfd" stroke="#fdfdfd"/></svg>