<svg xmlns="http://www.w3.org/2000/svg" version="1.1" viewBox="0 0.47740301489830017 458.84130859375 514.7138671875" width="459.00" height="516.00">
<g stroke-width="2.00" fill="none" stroke-linecap="butt">
<path stroke="#e16149" stroke-opacity="0.992" d="&#10;  M 394.77 104.90&#10;  L 345.97 114.77"/>
<path stroke="#f58945" stroke-opacity="0.992" d="&#10;  M 345.97 114.77&#10;  Q 346.17 114.33 346.49 113.98&#10;  C 359.42 100.01 374.19 84.16 389.58 69.08&#10;  Q 401.51 57.39 429.44 29.44&#10;  Q 441.86 17.02 454.25 3.79"/>
<path stroke="#e16149" stroke-opacity="0.992" d="&#10;  M 353.82 168.56&#10;  Q 354.65 167.53 354.43 165.89&#10;  C 352.30 150.63 348.55 135.42 345.05 120.42&#10;  Q 344.59 118.48 344.67 115.49"/>
<path stroke="#e47a4a" stroke-opacity="0.992" d="&#10;  M 345.97 114.77&#10;  L 344.67 115.49"/>
<path stroke="#f58945" stroke-opacity="0.992" d="&#10;  M 344.67 115.49&#10;  Q 341.73 115.63 340.75 115.48&#10;  Q 325.66 113.16 309.78 112.00"/>
<path stroke="#495283" stroke-opacity="0.992" d="&#10;  M 284.27 109.18&#10;  Q 279.69 108.98 275.25 109.30&#10;  Q 234.09 112.30 192.97 115.54"/>
<path stroke="#3c467b" stroke-opacity="0.992" d="&#10;  M 192.97 115.54&#10;  L 192.42 115.01"/>
<path stroke="#4f568d" stroke-opacity="0.992" d="&#10;  M 454.66 343.81&#10;  Q 454.59 343.98 454.36 344.09&#10;  A 0.52 0.51 -45.6 0 1 453.90 344.10&#10;  Q 449.82 342.30 445.58 339.68&#10;  Q 391.91 306.52 340.06 274.06&#10;  C 329.64 267.54 322.16 263.48 312.97 258.01&#10;  C 304.28 252.84 294.82 245.54 285.28 239.77&#10;  C 281.89 237.72 278.56 234.90 275.31 232.24"/>
<path stroke="#616096" stroke-opacity="0.992" d="&#10;  M 275.31 232.24&#10;  Q 273.70 230.03 271.74 227.63&#10;  Q 269.48 224.84 268.14 223.03&#10;  Q 247.41 194.95 227.21 166.49&#10;  Q 212.18 145.31 197.34 124.16&#10;  Q 194.24 119.73 192.97 115.54"/>
<path stroke="#434a86" stroke-opacity="0.992" d="&#10;  M 275.31 232.24&#10;  Q 267.42 235.29 257.05 241.79&#10;  Q 195.11 280.63 172.54 295.22"/>
<path stroke="#3d578c" stroke-opacity="0.992" d="&#10;  M 172.54 295.22&#10;  L 172.38 294.54"/>
<path stroke="#426ca3" stroke-opacity="0.992" d="&#10;  M 172.38 294.54&#10;  L 191.94 115.66"/>
<path stroke="#2b6fa0" stroke-opacity="0.992" d="&#10;  M 172.38 294.54&#10;  Q 172.04 295.52 170.76 295.99&#10;  Q 120.31 314.40 5.16 357.04&#10;  C 3.55 357.63 1.87 357.95 0.21 358.39"/>
<path stroke="#4794c1" stroke-opacity="0.992" d="&#10;  M 0.00 357.00&#10;  Q 0.67 357.01 0.94 356.68&#10;  Q 7.49 348.40 15.43 336.45&#10;  Q 50.82 283.19 76.97 242.99&#10;  Q 98.40 210.06 119.10 179.35&#10;  Q 123.31 173.10 129.48 162.24&#10;  Q 129.74 161.78 129.60 160.72"/>
<path stroke="#48407e" stroke-opacity="0.992" d="&#10;  M 455.73 344.74&#10;  Q 451.39 345.78 447.90 345.81&#10;  Q 422.93 346.01 407.85 346.48&#10;  Q 405.15 346.57 402.72 347.77&#10;  A 0.61 0.60 69.2 0 0 402.41 348.47&#10;  L 418.34 407.80"/>
<path stroke="#2b3c73" stroke-opacity="0.992" d="&#10;  M 348.54 412.99&#10;  Q 348.78 410.88 350.52 408.76&#10;  Q 372.88 381.61 400.81 347.36&#10;  A 0.61 0.61 0.0 0 0 400.36 346.37&#10;  L 322.42 343.47"/>
<path stroke="#2b3c73" stroke-opacity="0.992" d="&#10;  M 244.90 326.83&#10;  L 173.06 295.72"/>
<path stroke="#2c4d83" stroke-opacity="0.992" d="&#10;  M 173.06 295.72&#10;  Q 172.77 295.60 172.54 295.22"/>
<path stroke="#254979" stroke-opacity="0.992" d="&#10;  M 173.06 295.72&#10;  Q 173.04 296.59 173.15 296.87&#10;  Q 176.36 305.56 179.73 313.72&#10;  C 186.88 331.05 194.37 351.19 200.39 365.48&#10;  Q 210.54 389.60 214.51 400.38&#10;  Q 214.99 401.70 232.49 446.17&#10;  Q 236.16 455.51 243.09 474.04&#10;  Q 249.35 490.81 253.87 501.87&#10;  Q 256.78 508.97 257.63 515.16"/>
</g>
<path fill="#f27044" fill-opacity="0.992" d="&#10;  M 394.77 104.90&#10;  L 345.97 114.77&#10;  Q 346.17 114.33 346.49 113.98&#10;  C 359.42 100.01 374.19 84.16 389.58 69.08&#10;  Q 401.51 57.39 429.44 29.44&#10;  Q 441.86 17.02 454.25 3.79&#10;  Q 455.56 1.79 458.24 0.52&#10;  A 0.43 0.42 -86.6 0 1 458.78 1.13&#10;  L 394.77 104.90&#10;  Z"/>
<path fill="#f7a245" fill-opacity="0.992" d="&#10;  M 454.25 3.79&#10;  Q 441.86 17.02 429.44 29.44&#10;  Q 401.51 57.39 389.58 69.08&#10;  C 374.19 84.16 359.42 100.01 346.49 113.98&#10;  Q 346.17 114.33 345.97 114.77&#10;  L 344.67 115.49&#10;  Q 341.73 115.63 340.75 115.48&#10;  Q 325.66 113.16 309.78 112.00&#10;  Q 321.82 102.54 333.20 93.96&#10;  Q 364.77 70.14 396.47 46.49&#10;  Q 400.06 43.82 403.63 41.12&#10;  Q 428.44 22.36 454.25 3.79&#10;  Z"/>
<path fill="#243868" fill-opacity="0.992" d="&#10;  M 284.27 109.18&#10;  Q 279.69 108.98 275.25 109.30&#10;  Q 234.09 112.30 192.97 115.54&#10;  L 192.42 115.01&#10;  L 227.87 48.72&#10;  A 1.21 1.14 61.8 0 0 228.01 48.20&#10;  Q 228.09 46.52 229.42 46.06&#10;  Q 230.36 45.73 231.04 46.56&#10;  Q 239.16 56.64 243.91 61.85&#10;  Q 244.19 62.16 270.87 93.15&#10;  Q 277.68 101.07 284.27 109.18&#10;  Z"/>
<path fill="#d0524e" fill-opacity="0.992" d="&#10;  M 394.77 104.90&#10;  L 355.58 169.10&#10;  A 0.71 0.71 0.0 0 1 354.46 169.23&#10;  L 353.82 168.56&#10;  Q 354.65 167.53 354.43 165.89&#10;  C 352.30 150.63 348.55 135.42 345.05 120.42&#10;  Q 344.59 118.48 344.67 115.49&#10;  L 345.97 114.77&#10;  L 394.77 104.90&#10;  Z"/>
<path fill="#6d6c9d" fill-opacity="0.992" d="&#10;  M 284.27 109.18&#10;  Q 286.95 112.88 289.50 116.66&#10;  Q 293.37 122.39 294.70 124.18&#10;  Q 298.05 128.66 304.83 138.12&#10;  Q 308.53 143.29 315.04 152.05&#10;  Q 336.69 181.16 341.89 188.90&#10;  Q 350.43 201.58 354.96 207.60&#10;  Q 372.66 231.11 389.15 253.72&#10;  C 395.01 261.75 401.84 270.18 407.91 278.79&#10;  Q 413.48 286.69 419.91 295.44&#10;  Q 426.00 303.73 432.03 312.00&#10;  Q 434.78 315.78 437.23 319.22&#10;  Q 446.00 331.49 454.66 343.81&#10;  Q 454.59 343.98 454.36 344.09&#10;  A 0.52 0.51 -45.6 0 1 453.90 344.10&#10;  Q 449.82 342.30 445.58 339.68&#10;  Q 391.91 306.52 340.06 274.06&#10;  C 329.64 267.54 322.16 263.48 312.97 258.01&#10;  C 304.28 252.84 294.82 245.54 285.28 239.77&#10;  C 281.89 237.72 278.56 234.90 275.31 232.24&#10;  Q 273.70 230.03 271.74 227.63&#10;  Q 269.48 224.84 268.14 223.03&#10;  Q 247.41 194.95 227.21 166.49&#10;  Q 212.18 145.31 197.34 124.16&#10;  Q 194.24 119.73 192.97 115.54&#10;  Q 234.09 112.30 275.25 109.30&#10;  Q 279.69 108.98 284.27 109.18&#10;  Z"/>
<path fill="#f27044" fill-opacity="0.992" d="&#10;  M 309.78 112.00&#10;  Q 325.66 113.16 340.75 115.48&#10;  Q 341.73 115.63 344.67 115.49&#10;  Q 344.59 118.48 345.05 120.42&#10;  C 348.55 135.42 352.30 150.63 354.43 165.89&#10;  Q 354.65 167.53 353.82 168.56&#10;  C 351.70 166.28 349.80 163.18 348.25 161.29&#10;  Q 328.91 137.68 324.15 131.11&#10;  Q 318.38 123.14 310.29 113.96&#10;  Q 309.28 112.81 309.78 112.00&#10;  Z"/>
<path fill="#54548e" fill-opacity="0.992" d="&#10;  M 192.42 115.01&#10;  L 192.97 115.54&#10;  Q 194.24 119.73 197.34 124.16&#10;  Q 212.18 145.31 227.21 166.49&#10;  Q 247.41 194.95 268.14 223.03&#10;  Q 269.48 224.84 271.74 227.63&#10;  Q 273.70 230.03 275.31 232.24&#10;  Q 267.42 235.29 257.05 241.79&#10;  Q 195.11 280.63 172.54 295.22&#10;  L 172.38 294.54&#10;  L 191.94 115.66&#10;  L 192.42 115.01&#10;  Z"/>
<path fill="#3084b7" fill-opacity="0.992" d="&#10;  M 191.94 115.66&#10;  L 172.38 294.54&#10;  Q 172.04 295.52 170.76 295.99&#10;  Q 120.31 314.40 5.16 357.04&#10;  C 3.55 357.63 1.87 357.95 0.21 358.39&#10;  L 0.00 358.27&#10;  L 0.00 357.00&#10;  Q 0.67 357.01 0.94 356.68&#10;  Q 7.49 348.40 15.43 336.45&#10;  Q 50.82 283.19 76.97 242.99&#10;  Q 98.40 210.06 119.10 179.35&#10;  Q 123.31 173.10 129.48 162.24&#10;  Q 129.74 161.78 129.60 160.72&#10;  L 191.94 115.66&#10;  Z"/>
<path fill="#5ea4ca" fill-opacity="0.992" d="&#10;  M 129.60 160.72&#10;  Q 129.74 161.78 129.48 162.24&#10;  Q 123.31 173.10 119.10 179.35&#10;  Q 98.40 210.06 76.97 242.99&#10;  Q 50.82 283.19 15.43 336.45&#10;  Q 7.49 348.40 0.94 356.68&#10;  Q 0.67 357.01 0.00 357.00&#10;  L 0.00 356.50&#10;  Q 2.70 343.93 4.52 331.20&#10;  Q 5.05 327.51 5.24 326.69&#10;  C 6.19 322.71 6.15 319.45 7.05 315.01&#10;  Q 7.52 312.70 8.20 306.96&#10;  C 8.62 303.44 9.86 299.58 10.11 295.70&#10;  A 10.68 9.98 -68.3 0 1 10.31 294.21&#10;  Q 11.47 288.77 11.98 284.43&#10;  Q 12.52 279.77 13.19 277.01&#10;  C 14.07 273.35 14.02 270.75 14.87 267.11&#10;  C 16.00 262.24 16.06 258.74 17.07 253.87&#10;  Q 18.05 249.09 18.34 244.48&#10;  Q 18.44 242.78 19.87 239.49&#10;  A 2.40 2.34 -6.5 0 1 20.66 238.52&#10;  L 129.60 160.72&#10;  Z"/>
<path fill="#31407d" fill-opacity="0.992" d="&#10;  M 275.31 232.24&#10;  C 278.56 234.90 281.89 237.72 285.28 239.77&#10;  C 294.82 245.54 304.28 252.84 312.97 258.01&#10;  C 322.16 263.48 329.64 267.54 340.06 274.06&#10;  Q 391.91 306.52 445.58 339.68&#10;  Q 449.82 342.30 453.90 344.10&#10;  A 0.52 0.51 -45.6 0 0 454.36 344.09&#10;  Q 454.59 343.98 454.66 343.81&#10;  Q 455.33 344.08 455.73 344.74&#10;  Q 451.39 345.78 447.90 345.81&#10;  Q 422.93 346.01 407.85 346.48&#10;  Q 405.15 346.57 402.72 347.77&#10;  A 0.61 0.60 69.2 0 0 402.41 348.47&#10;  L 418.34 407.80&#10;  Q 416.03 409.20 410.92 408.96&#10;  A 10.55 9.95 40.3 0 0 409.00 409.06&#10;  Q 403.55 409.87 399.51 409.86&#10;  C 392.78 409.83 384.99 411.03 378.50 411.00&#10;  C 376.18 410.99 372.70 411.86 369.49 411.88&#10;  Q 359.03 411.96 348.54 412.99&#10;  Q 348.78 410.88 350.52 408.76&#10;  Q 372.88 381.61 400.81 347.36&#10;  A 0.61 0.61 0.0 0 0 400.36 346.37&#10;  L 322.42 343.47&#10;  Q 315.76 341.76 309.17 340.38&#10;  Q 291.11 336.60 262.38 330.37&#10;  C 260.16 329.89 257.47 329.57 254.89 328.75&#10;  Q 253.44 328.29 251.16 327.90&#10;  C 248.82 327.51 247.64 326.39 244.90 326.83&#10;  L 173.06 295.72&#10;  Q 172.77 295.60 172.54 295.22&#10;  Q 195.11 280.63 257.05 241.79&#10;  Q 267.42 235.29 275.31 232.24&#10;  Z"/>
<path fill="#265a89" fill-opacity="0.992" d="&#10;  M 172.38 294.54&#10;  L 172.54 295.22&#10;  Q 172.77 295.60 173.06 295.72&#10;  Q 173.04 296.59 173.15 296.87&#10;  Q 176.36 305.56 179.73 313.72&#10;  C 186.88 331.05 194.37 351.19 200.39 365.48&#10;  Q 210.54 389.60 214.51 400.38&#10;  Q 214.99 401.70 232.49 446.17&#10;  Q 236.16 455.51 243.09 474.04&#10;  Q 249.35 490.81 253.87 501.87&#10;  Q 256.78 508.97 257.63 515.16&#10;  Q 246.23 508.05 235.45 501.55&#10;  Q 221.41 493.10 215.85 489.60&#10;  Q 209.43 485.56 202.71 481.76&#10;  Q 198.96 479.64 189.58 473.92&#10;  Q 160.94 456.45 120.10 431.91&#10;  Q 85.77 411.28 54.05 391.89&#10;  C 52.72 391.08 51.85 390.08 50.53 389.71&#10;  A 1.79 1.75 67.4 0 1 50.13 389.54&#10;  Q 24.61 374.00 1.12 359.93&#10;  Q 0.43 359.52 0.11 358.94&#10;  Q 0.08 358.87 0.21 358.39&#10;  C 1.87 357.95 3.55 357.63 5.16 357.04&#10;  Q 120.31 314.40 170.76 295.99&#10;  Q 172.04 295.52 172.38 294.54&#10;  Z"/>
<path fill="#243868" fill-opacity="0.992" d="&#10;  M 244.90 326.83&#10;  L 258.80 514.06&#10;  A 0.98 0.96 67.9 0 1 258.46 514.88&#10;  Q 257.98 515.29 257.63 515.16&#10;  Q 256.78 508.97 253.87 501.87&#10;  Q 249.35 490.81 243.09 474.04&#10;  Q 236.16 455.51 232.49 446.17&#10;  Q 214.99 401.70 214.51 400.38&#10;  Q 210.54 389.60 200.39 365.48&#10;  C 194.37 351.19 186.88 331.05 179.73 313.72&#10;  Q 176.36 305.56 173.15 296.87&#10;  Q 173.04 296.59 173.06 295.72&#10;  L 244.90 326.83&#10;  Z"/>
<path fill="#243868" fill-opacity="0.992" d="&#10;  M 348.54 412.99&#10;  Q 347.01 411.49 346.74 410.73&#10;  Q 338.79 388.10 330.71 365.52&#10;  Q 326.74 354.39 322.42 343.47&#10;  L 400.36 346.37&#10;  A 0.61 0.61 0.0 0 1 400.81 347.36&#10;  Q 372.88 381.61 350.52 408.76&#10;  Q 348.78 410.88 348.54 412.99&#10;  Z"/>
<path fill="#5e3f7e" fill-opacity="0.992" d="&#10;  M 455.73 344.74&#10;  Q 456.29 346.21 455.56 347.33&#10;  Q 450.28 355.40 446.02 362.35&#10;  Q 437.37 376.48 437.32 376.57&#10;  Q 428.02 391.52 418.34 407.80&#10;  L 402.41 348.47&#10;  A 0.61 0.60 69.2 0 1 402.72 347.77&#10;  Q 405.15 346.57 407.85 346.48&#10;  Q 422.93 346.01 447.90 345.81&#10;  Q 451.39 345.78 455.73 344.74&#10;  Z"/>
</svg>