<?xml version="1.0" encoding="UTF-8"?>
<svg width="1024" height="1024" viewBox="0 0 1024 1024" xmlns="http://www.w3.org/2000/svg">
  <path id="1" d="M 0.341,330 C 0.730,226.314 0.713,226.646 6.625,200 C 29.800,95.544 116.858,16.464 224,2.546 C 235.106,1.103 251.744,0.954 373.167,1.211 C 448.334,1.370 510.058,1.725 510.333,2 C 510.608,2.275 510.983,65.599 511.168,142.719 C 511.353,219.839 511.197,282.164 510.822,281.219 C 510.447,280.274 510.109,279.901 510.070,280.390 C 509.999,281.293 505,274.367 505,273.365 C 505,271.336 486.409,252.171 474.726,242.156 C 463.011,232.114 432.365,212.363 413.500,202.696 C 398.440,194.979 374.912,184.507 358,177.996 C 353.325,176.196 345.675,173.245 341,171.438 C 323.260,164.579 292.882,154.848 249.500,142.128 C 213.965,131.709 213,131.578 213,137.184 C 213,139.178 214.029,141.183 216.130,143.284 C 217.851,145.005 218.816,146.562 218.275,146.742 C 217.734,146.922 217.483,148.079 217.719,149.313 C 217.976,150.658 217.417,152.213 216.324,153.196 C 214.346,154.974 211.934,154.704 201,151.482 C 186.370,147.171 183.807,146.697 182.898,148.131 C 181.572,150.224 181.811,163.411 183.200,164.800 C 185.037,166.637 184.159,166.378 169.837,160.874 C 162.502,158.055 155.038,155.334 149,153.500 C 148.527,154.600 148.109,190.388 148.070,233.028 C 148.001,309.274 147.967,310.584 146,312.268 C 144.074,313.917 144,315.218 144,347.431 C 144,373.093 143.709,381.070 142.750,381.691 C 142.062,382.136 120.125,382.554 94,382.620 C 60.218,382.705 45.200,383.090 42,383.954 C 36.011,385.570 25.100,391.905 18.303,397.712 C 12.542,402.634 5.905,412.015 2.179,420.500 C 2.179,420.500 -0.017,425.500 -0.017,425.500 C -0.017,425.500 0.341,330 0.341,330" stroke="#AFC933" fill="#AFC933" stroke-width="1"/>
  <path id="589" d="M 1022.046,426.500 C 1022.002,425.400 1020.848,423.440 1019.483,422.145 C 1018.118,420.850 1017,419.356 1017,418.825 C 1017,416.939 1011.137,409.395 1004.140,402.277 C 995.609,393.598 986.785,388.845 972,384.966 C 970.075,384.461 955.134,384.037 938.797,384.024 C 938.797,384.024 909.094,384 909.094,384 C 909.094,384 907.468,380.575 907.468,380.575 C 905.490,376.408 902.437,375.687 890,376.458 C 885.325,376.748 880.036,376.713 878.247,376.381 C 878.247,376.381 874.994,375.776 874.994,375.776 C 874.994,375.776 875.009,265.700 875.009,265.700 C 875.018,199.693 874.654,155.254 874.100,154.700 C 873.535,154.135 868.772,155.399 861.838,157.953 C 855.602,160.250 848.138,162.986 845.250,164.031 C 845.250,164.031 840,165.932 840,165.932 C 840,165.932 840,154.935 840,154.935 C 840,145.814 839.729,143.833 838.413,143.328 C 837.540,142.993 830.874,144.583 823.599,146.860 C 816.324,149.137 809.838,151 809.186,151 C 808.344,151 808,147.843 808,140.122 C 808,132.502 807.616,128.926 806.719,128.182 C 805.360,127.054 805.467,127.027 768,137.698 C 713.284,153.282 662.051,172.950 622,193.749 C 606.033,202.041 580.698,217.072 572.500,223.118 C 570.300,224.740 565.350,228.383 561.500,231.212 C 540.917,246.338 518.417,269.467 513.927,280.116 C 513.927,280.116 512.500,283.500 512.500,283.500 C 512.500,283.500 512,276.561 512,276.561 C 511.725,272.744 511.643,209.185 511.818,135.319 C 511.818,135.319 512.135,1.016 512.135,1.016 C 512.135,1.016 650.508,1.007 650.508,1.007 C 769.289,0.999 790.552,1.216 800.690,2.536 C 884.246,13.420 957.183,64.703 995.049,139.192 C 1008.866,166.372 1016.370,189.839 1021.206,221 C 1023.197,233.829 1023.321,239.199 1023.720,329 C 1023.996,391.071 1023.794,424.358 1023.133,426 C 1022.272,428.139 1022.115,428.211 1022.046,426.500" stroke="#FB5A47" fill="#FB5A47" stroke-width="1"/>
  <path id="296" d="M 511.895,983.317 C 511.379,979.286 511.534,820.754 512.054,819.912 C 512.549,819.110 514.900,819.246 520.478,820.400 C 530.118,822.394 540.530,822.439 550.504,820.531 C 554.728,819.723 558.480,819.101 558.842,819.149 C 561.161,819.458 563.216,818.716 565.487,816.750 C 565.487,816.750 568.086,814.500 568.086,814.500 C 568.086,814.500 566.579,798.119 566.579,798.119 C 565.750,789.109 564.876,781.543 564.638,781.305 C 563.835,780.502 558.530,780.784 554,781.871 C 540.931,785.007 529.728,782.145 525.717,774.645 C 523.547,770.587 523.494,769.640 523.199,729.250 C 523.199,729.250 522.898,688 522.898,688 C 522.898,688 541.949,688 541.949,688 C 566.522,688 565,689.207 565,669.723 C 565,649.646 566.596,651 542.943,651 C 542.943,651 524,651 524,651 C 524,651 524,637 524,637 C 524,637 524,623 524,623 C 524,623 699.750,623 699.750,623 C 699.750,623 875.500,623 875.500,623 C 875.500,623 875.282,689.750 875.282,689.750 C 875.162,726.462 875.049,759.537 875.032,763.250 C 875.005,769.089 874.756,770 873.188,770 C 867.523,770 855.881,778.880 852.866,785.500 C 849.961,791.878 850.354,801.527 853.787,808.136 C 856.976,814.275 863.953,819.649 869.987,820.614 C 872.042,820.943 874.148,821.502 874.666,821.856 C 875.228,822.241 875.385,828.924 875.054,838.446 C 875.054,838.446 874.500,854.393 874.500,854.393 C 874.500,854.393 859.500,859.719 859.500,859.719 C 851.250,862.648 839.100,867.014 832.500,869.420 C 825.900,871.826 811.950,876.826 801.500,880.530 C 781.471,887.630 768.910,892.133 750,898.992 C 743.675,901.286 732.200,905.425 724.500,908.191 C 716.800,910.957 708.025,914.123 705,915.227 C 701.975,916.331 694.100,919.150 687.500,921.493 C 680.900,923.836 652.100,934.168 623.500,944.454 C 594.900,954.740 564.525,965.641 556,968.680 C 547.475,971.719 535.100,976.154 528.500,978.536 C 513.790,983.845 512.027,984.352 511.895,983.317M 677.281,820.425 C 695.288,816.680 711.467,807.068 721.243,794.309 C 728.001,785.488 728.574,784.108 726.350,782.018 C 723.917,779.732 699.209,765 697.808,765 C 697.211,765 693.249,768.319 689.003,772.375 C 683.274,777.849 679.789,780.310 675.488,781.919 C 666.495,785.284 660.232,786.302 652.038,785.733 C 630.628,784.245 615.883,771.390 612.539,751.295 C 612.539,751.295 611.839,747.089 611.839,747.089 C 611.839,747.089 671.457,746.795 671.457,746.795 C 723.145,746.540 731.200,746.300 732.022,745 C 733.299,742.979 733.241,722.088 731.936,714 C 726.993,683.353 707.419,659.804 679.737,651.199 C 672.270,648.878 669.864,648.633 654,648.576 C 634.177,648.505 629.344,649.433 615.271,656.007 C 594.147,665.874 579.177,683.556 572.531,706.490 C 566.193,728.362 567.551,753.648 576.121,773.335 C 588.045,800.725 612.155,818.048 643.874,822.018 C 652.155,823.054 668.351,822.282 677.281,820.425M 792.259,817.750 C 793.728,816.631 793.938,811.771 794.267,771.500 C 794.660,723.429 794.891,721.014 800.064,710.874 C 803.202,704.724 810.330,698.213 817.799,694.674 C 824.341,691.575 824.849,691.497 839.267,691.399 C 847.389,691.344 854.364,690.970 854.767,690.568 C 855.170,690.166 855.647,681.390 855.826,671.066 C 856.207,649.143 856.357,649.519 846.759,648.491 C 837.514,647.501 823.066,650.375 813.981,655.010 C 808.403,657.856 799.765,666.039 795.692,672.335 C 795.692,672.335 792.500,677.269 792.500,677.269 C 792.500,677.269 791.740,665.975 791.740,665.975 C 791.322,659.764 790.480,654.078 789.868,653.341 C 788.357,651.520 754.008,651.392 752.200,653.200 C 751.286,654.114 751.003,673.616 751.015,734.950 C 751.023,779.252 751.361,815.995 751.765,816.600 C 753.099,818.597 755.336,818.841 773.059,818.921 C 785.670,818.978 791.080,818.648 792.259,817.750" stroke="#F94D30" fill="#F94D30" stroke-width="1"/>
  <path id="243" d="M 493.500,978.089 C 484.150,974.847 469.975,969.861 462,967.009 C 454.025,964.157 445.250,961.143 442.500,960.310 C 439.750,959.477 437.050,958.458 436.500,958.044 C 435.950,957.630 428.975,955.158 421,952.550 C 413.025,949.942 403.575,946.551 400,945.014 C 396.425,943.477 389.450,940.977 384.500,939.458 C 373.754,936.161 369.213,934.548 353.797,928.552 C 347.360,926.049 341.574,924 340.938,924 C 340.302,924 332.743,921.481 324.141,918.402 C 315.539,915.323 300.400,909.902 290.500,906.355 C 280.600,902.808 270.475,899.196 268,898.327 C 265.525,897.458 262.150,896.196 260.500,895.523 C 251.475,891.841 244.961,889.478 235.751,886.548 C 222.061,882.192 198.761,873.879 197.447,872.882 C 195.915,871.719 176,865.046 176,865.696 C 176,865.998 175.438,865.806 174.750,865.268 C 173.450,864.252 172.379,863.830 157.500,858.485 C 157.500,858.485 148.500,855.251 148.500,855.251 C 148.500,855.251 148.227,837.126 148.227,837.126 C 148.227,837.126 147.955,819 147.955,819 C 147.955,819 211.286,819 211.286,819 C 261.898,819 274.977,818.737 276.408,817.691 C 277.929,816.579 278.195,814.847 278.174,806.178 C 278.160,800.176 278.531,796.210 279,795 C 278.424,795 278,791.874 278,787.622 C 278,782.677 277.559,779.878 276.661,779.133 C 275.736,778.365 262.061,777.941 232.411,777.761 C 232.411,777.761 189.500,777.500 189.500,777.500 C 189.500,777.500 189.194,711.500 189.194,711.500 C 189.026,675.200 189.183,640.447 189.542,634.270 C 189.542,634.270 190.195,623.040 190.195,623.040 C 190.195,623.040 334.347,623.270 334.347,623.270 C 334.347,623.270 478.500,623.500 478.500,623.500 C 478.500,623.500 478.777,637.750 478.777,637.750 C 478.777,637.750 479.055,652 479.055,652 C 479.055,652 464.563,652 464.563,652 C 451.258,652 449.985,652.158 449.035,653.934 C 448.459,655.011 448,662.258 448,670.279 C 448,688.895 447.129,688 465.242,688 C 465.242,688 478.826,688 478.826,688 C 478.826,688 479.248,733.250 479.248,733.250 C 479.608,771.880 479.919,779.378 481.366,784.500 C 484.793,796.629 490.900,806.017 499.341,812.132 C 501.518,813.709 502.895,815.037 502.400,815.081 C 501.905,815.126 503.229,815.968 505.343,816.954 C 505.343,816.954 509.186,818.746 509.186,818.746 C 509.186,818.746 509.049,855.873 509.049,855.873 C 508.956,881.083 509.247,893 509.956,893 C 510.628,893 511,897.655 511,906.059 C 511,914.510 510.647,918.900 510,918.500 C 509.342,918.093 509,928.296 509,948.358 C 509,965.120 509.391,978.984 509.868,979.167 C 511.035,979.615 512.352,984.002 511.317,983.992 C 510.867,983.987 502.850,981.331 493.500,978.089M 364.754,820.376 C 371.670,818.933 383.350,813.878 389.250,809.776 C 393.170,808.899 393.227,808.986 393.985,809.070 C 393.993,809.933 395.125,811.617 396.500,812.813 C 397.875,814.009 399,815.616 399,816.386 C 399,818.653 401.377,819.001 416.832,818.989 C 431.834,818.978 439.304,818.302 438.517,817.028 C 438.273,816.634 437.908,790.929 437.704,759.906 C 437.291,697.060 437.204,696.132 430.409,682.381 C 426.383,674.233 414.998,660.691 409.491,657.500 C 407.179,656.160 406.207,654.966 406.546,653.882 C 406.861,652.873 406.056,651.612 404.410,650.533 C 402.105,649.023 401.585,648.987 400.322,650.250 C 399.059,651.513 398.036,651.464 392.287,649.870 C 383.158,647.339 366.998,645.791 361.731,646.944 C 359.404,647.453 352.616,648.608 346.646,649.509 C 335.878,651.135 335.780,651.132 334.339,649.074 C 330.372,643.411 316.367,649.603 317.175,656.662 C 317.456,659.117 316.621,660.193 311,664.625 C 301.849,671.840 293,683.688 293,688.724 C 293,690.810 293.608,691.193 305,696.291 C 308.025,697.645 313.989,700.383 318.254,702.376 C 322.519,704.369 326.404,706 326.887,706 C 327.370,706 329.893,703.101 332.494,699.559 C 340.099,689.200 347.781,685.085 361,684.287 C 371.714,683.640 379.573,685.716 385.009,690.627 C 390.430,695.525 392.364,700.023 391.067,704.720 C 390.396,707.150 390.380,708.780 391.020,709.420 C 392.353,710.753 392.263,714 390.893,714 C 390.284,714 390.026,714.625 390.319,715.389 C 390.910,716.928 388.065,717.284 361.500,718.987 C 334.998,720.686 321.779,724.326 308.500,733.581 C 295.549,742.607 289,755.749 289,772.713 C 289,786.183 293.566,797.420 302.713,806.460 C 308.740,812.417 313.488,815.197 323.160,818.429 C 335.974,822.711 350.341,823.384 364.754,820.376" stroke="#058833" fill="#058833" stroke-width="1"/>
  <path id="297" d="M 511.627,1004.307 C 512.042,986.854 512.300,984.421 513.799,983.835 C 515.716,983.086 532.913,976.909 556,968.680 C 564.525,965.641 594.900,954.740 623.500,944.454 C 652.100,934.168 680.900,923.836 687.500,921.493 C 694.100,919.150 701.975,916.331 705,915.227 C 708.025,914.123 716.800,910.957 724.500,908.191 C 732.200,905.425 743.675,901.286 750,898.992 C 768.910,892.133 781.471,887.630 801.500,880.530 C 811.950,876.826 825.900,871.826 832.500,869.420 C 839.100,867.014 851.250,862.648 859.500,859.719 C 859.500,859.719 874.500,854.393 874.500,854.393 C 874.500,854.393 875.021,838.647 875.021,838.647 C 875.571,822.027 875.971,820.751 880.500,821.173 C 883.025,821.408 889.165,820.037 890.548,818.929 C 891.125,818.467 893.278,817.976 895.332,817.838 C 899.257,817.574 903,814.942 903,812.447 C 903,811.636 903.546,810.097 904.215,809.027 C 905.169,807.500 905.169,806.357 904.215,803.719 C 903.546,801.870 903,798.333 903,795.857 C 903,788.711 900.400,782.624 895.366,777.983 C 889.398,772.482 884.945,770.757 876.500,770.674 C 872.650,770.636 870.737,770.440 872.250,770.237 C 874.934,769.876 875.001,769.708 875.038,763.184 C 875.059,759.508 875.061,726.944 875.042,690.821 C 875.023,654.698 875.279,624.435 875.611,623.571 C 876.147,622.175 881.253,621.998 921.357,621.982 C 981.214,621.958 983.182,621.683 1000.850,610.930 C 1006.407,607.548 1016.132,596.399 1020.250,588.689 C 1020.250,588.689 1023,583.540 1023,583.540 C 1023,583.540 1023,686.219 1023,686.219 C 1023,772.808 1022.759,790.747 1021.463,800.699 C 1010.581,884.246 959.294,957.185 884.808,995.049 C 857.678,1008.840 834.353,1016.305 803,1021.231 C 789.815,1023.302 786.249,1023.361 650.328,1023.733 C 650.328,1023.733 511.156,1024.114 511.156,1024.114 C 511.156,1024.114 511.627,1004.307 511.627,1004.307" stroke="#FC9B37" fill="#FC9B37" stroke-width="1"/>
  <path id="3" d="M 238.983,1022.972 C 150.043,1017.340 69.332,964.247 28.950,884.808 C 15.141,857.643 7.649,834.216 2.787,803 C 0.765,790.018 0.673,785.468 0.390,684.500 C 0.228,626.750 0.457,580.625 0.899,582 C 2.252,586.213 6.754,594.551 8.422,595.935 C 9.290,596.655 10,597.849 10,598.588 C 10,599.327 11.397,601.521 13.104,603.465 C 16.916,608.700 11.891,608.136 15.674,608.572 C 17.327,607.938 20.058,609.194 23.463,612.155 C 26.064,614.416 34.766,619 36.458,619 C 37.073,619 39.308,619.883 41.425,620.962 C 44.119,622.335 45.793,622.646 47.005,621.997 C 47.957,621.487 49.058,621.392 49.451,621.785 C 49.844,622.178 70.716,622.725 95.833,623 C 95.833,623 141.500,623.500 141.500,623.500 C 141.500,623.500 141.755,719.326 141.755,719.326 C 142.022,819.648 141.885,816.622 146.227,818.266 C 147.762,818.847 147.985,820.947 148.227,837.086 C 148.227,837.086 148.500,855.251 148.500,855.251 C 148.500,855.251 157.500,858.485 157.500,858.485 C 172.379,863.830 173.450,864.252 174.750,865.268 C 175.438,865.806 176,865.998 176,865.696 C 176,865.046 195.915,871.719 197.447,872.882 C 198.761,873.879 222.061,882.192 235.751,886.548 C 244.961,889.478 251.475,891.841 260.500,895.523 C 262.150,896.196 265.525,897.458 268,898.327 C 270.475,899.196 280.600,902.808 290.500,906.355 C 300.400,909.902 315.539,915.323 324.141,918.402 C 332.743,921.481 340.302,924 340.938,924 C 341.574,924 347.360,926.049 353.797,928.552 C 369.213,934.548 373.754,936.161 384.500,939.458 C 389.450,940.977 396.425,943.477 400,945.014 C 403.575,946.551 413.025,949.942 421,952.550 C 428.975,955.158 435.950,957.630 436.500,958.044 C 437.050,958.458 439.750,959.477 442.500,960.310 C 445.250,961.143 454.025,964.150 462,966.994 C 469.975,969.838 483.463,974.614 491.973,977.606 C 500.483,980.598 507.832,983.432 508.304,983.904 C 508.776,984.376 509.113,992.015 509.054,1000.881 C 508.984,1011.315 509.308,1017 511,1024 C 511,1024 380.750,1023.851 380.750,1023.851 C 309.112,1023.769 245.317,1023.373 238.983,1022.972" stroke="#04B366" fill="#04B366" stroke-width="1"/>
  <path id="244" d="M 49.500,618.720 C 48.400,618.049 45.925,617.015 38.615,613.561 C 35.404,614.367 30.948,611.932 27.598,607.540 C 26.097,605.572 24.483,604.202 24.010,604.494 C 21.011,606.347 11.666,596.087 4.766,583.365 C 4.766,583.365 0.500,575.500 0.500,575.500 C 0.500,575.500 0.500,502.355 0.500,502.355 C 0.500,434.097 0.617,429.081 2.250,427.276 C 3.213,426.212 4,424.971 4,424.518 C 4,424.065 5.319,420.950 6.931,417.597 C 10.030,411.150 25.114,394.334 26.840,395.401 C 27.353,395.718 28.323,395.314 28.996,394.504 C 31.233,391.809 43.329,387.030 48.071,386.968 C 49.407,386.951 51.373,386.275 52.441,385.468 C 54.081,384.228 61.340,384 99.191,384 C 99.191,384 144,384 144,384 C 144,384 144.015,460.750 144.015,460.750 C 144.024,507.264 144.403,538.091 144.977,539 C 145.739,540.208 149.033,540.562 161.900,540.818 C 172.186,541.023 178.608,540.745 179.928,540.039 C 181.938,538.963 181.983,538.125 182.239,497.221 C 182.239,497.221 182.500,455.500 182.500,455.500 C 182.500,455.500 197.465,455.500 197.465,455.500 C 197.465,455.500 212.431,455.500 212.431,455.500 C 212.431,455.500 237.628,497.387 237.628,497.387 C 251.486,520.425 263.426,539.656 264.162,540.122 C 265.675,541.081 301.285,541.299 304.750,540.370 C 305.987,540.038 307,539.081 307,538.242 C 307,537.403 304.586,532.843 301.636,528.108 C 298.686,523.373 291.406,511.625 285.458,502 C 279.510,492.375 269.739,476.625 263.744,467 C 254.134,451.572 253.048,449.382 254.557,448.500 C 263.689,443.164 271.447,437.318 276.142,432.231 C 279.245,428.869 282.096,426.429 282.476,426.809 C 282.856,427.189 283.466,427.507 283.833,427.515 C 284.200,427.523 287.088,428.588 290.251,429.881 C 293.414,431.174 296.920,431.992 298.042,431.699 C 299.603,431.291 299.964,431.558 299.579,432.833 C 296.742,442.232 296.193,466.113 298.509,479.391 C 303.838,509.950 321.131,531.073 348,539.844 C 370.592,547.219 396.042,544.195 413.996,532.003 C 423.314,525.676 436.927,509.590 436.981,504.844 C 436.993,503.790 432.403,500.368 424.356,495.431 C 424.356,495.431 411.713,487.675 411.713,487.675 C 411.713,487.675 409.623,490.587 409.623,490.587 C 396.602,508.737 377.616,515.028 357.661,507.803 C 350.580,505.239 342.505,498.181 338.740,491.264 C 335.851,485.956 333,476.282 333,471.790 C 333,471.790 333,469 333,469 C 333,469 372.433,469 372.433,469 C 410.987,469 411.879,469.045 412.500,471 C 412.849,472.100 414.006,473 415.071,473 C 416.136,473 418.687,473.900 420.739,475 C 422.791,476.100 425.381,477 426.495,477 C 427.609,477 429.734,478.125 431.217,479.500 C 433.169,481.310 435.028,482 437.956,482 C 440.180,482 442,482.477 442,483.059 C 442,483.641 442.493,483.813 443.096,483.440 C 443.876,482.958 443.999,484.891 443.520,490.131 C 441.073,516.918 456.429,537.543 482.540,542.539 C 486.740,543.343 494.749,544 500.338,544.001 C 500.338,544.001 510.500,544.002 510.500,544.002 C 510.500,544.002 510.554,572.896 510.554,572.896 C 510.554,572.896 510.608,601.791 510.608,601.791 C 510.608,601.791 499.054,604.793 499.054,604.793 C 492.699,606.444 486.294,608.067 484.820,608.399 C 480.796,609.305 479,611.670 479,616.062 C 479,616.062 479,619.980 479,619.980 C 479,619.980 334.250,619.740 334.250,619.740 C 334.250,619.740 189.500,619.500 189.500,619.500 C 189.500,619.500 189,604.167 189,604.167 C 188.548,590.314 188.307,588.692 186.500,587.366 C 183.556,585.206 145.381,585.775 143.977,588 C 143.456,588.825 143.023,596.362 143.015,604.750 C 143.015,604.750 143,620 143,620 C 143,620 97.250,619.970 97.250,619.970 C 63.064,619.947 50.994,619.631 49.500,618.720" stroke="#6C4CBD" fill="#6C4CBD" stroke-width="1"/>
  <path id="291" d="M 807.230,458.785 C 807.005,380.132 806.951,378.044 805.066,377.035 C 802.864,375.857 777.728,375.605 776.583,376.750 C 776.171,377.163 775.309,377.500 774.667,377.500 C 773.792,377.500 773.373,397.624 772.991,458 C 772.991,458 772.482,538.500 772.482,538.500 C 772.482,538.500 772.241,476.312 772.241,476.312 C 772.241,476.312 772,414.123 772,414.123 C 772,414.123 765.750,414.367 765.750,414.367 C 761.445,414.535 756.622,415.717 750.250,418.166 C 750.250,418.166 741,421.722 741,421.722 C 741,421.722 741,367.083 741,367.083 C 741,319.249 740.806,312.169 739.443,310.223 C 737.958,308.103 737.228,308 723.666,308 C 712.413,308 708.982,308.325 707.223,309.557 C 705.011,311.106 705,311.260 704.993,340.807 C 704.984,376.571 704.459,384 701.939,384 C 700.964,384 699.265,382.763 698.163,381.250 C 696.491,378.956 695.360,378.476 691.330,378.357 C 688.674,378.278 683.800,377.174 680.500,375.903 C 675.289,373.896 672.660,373.586 660.500,373.546 C 644.148,373.492 637.711,375.116 624.773,382.556 C 620.523,385 616.130,387 615.010,387 C 611.824,387 605.004,393.984 605.002,397.248 C 605.001,398.793 603.463,402.133 601.490,404.880 C 590.090,420.748 584.012,448.431 586.869,471.470 C 586.869,471.470 587.981,480.440 587.981,480.440 C 587.981,480.440 585.241,482.684 585.241,482.684 C 581.997,485.340 581,485.532 581,483.500 C 581,481.194 579.312,481.722 578.601,484.250 C 576.968,490.057 576.181,481.467 575.738,453 C 575.316,425.882 575.025,421.617 573.117,414.534 C 567.678,394.343 552.784,379.745 533.204,375.416 C 529.517,374.601 524.581,373.499 522.236,372.967 C 519.891,372.435 516.872,372 515.528,372 C 515.528,372 513.085,372 513.085,372 C 513.085,372 513.022,331.557 513.022,331.557 C 513.022,331.557 512.959,291.113 512.959,291.113 C 512.959,291.113 516.230,289.636 516.230,289.636 C 521.003,287.480 546.705,277.477 552.256,275.615 C 554.872,274.738 562.972,271.743 570.256,268.961 C 577.540,266.179 587.100,262.537 591.500,260.868 C 595.900,259.199 601.525,256.989 604,255.956 C 606.475,254.923 615.700,251.398 624.500,248.124 C 633.300,244.850 647.700,239.399 656.500,236.011 C 665.300,232.623 677.675,227.932 684,225.587 C 708.360,216.557 718.697,212.741 724,210.821 C 727.025,209.726 731.525,208.007 734,207 C 736.475,205.993 741.200,204.191 744.500,202.994 C 751.570,200.429 757.343,198.214 761.500,196.470 C 763.150,195.778 767.650,194.086 771.500,192.710 C 779.278,189.931 795.859,183.505 800.500,181.470 C 802.150,180.747 804.839,179.820 806.476,179.412 C 808.113,179.004 812.163,177.447 815.476,175.953 C 818.789,174.459 825.775,171.777 831,169.995 C 836.225,168.213 840.725,166.432 841,166.036 C 841.275,165.640 843.525,164.601 846,163.725 C 848.475,162.849 855.602,160.253 861.838,157.955 C 868.772,155.400 873.535,154.135 874.100,154.700 C 875.003,155.603 875.463,375.871 874.564,376.770 C 874.327,377.007 873.654,376.904 873.067,376.541 C 872.366,376.108 872,368.606 872,354.641 C 872,332.389 871.734,330.979 867.550,331.020 C 866.422,331.031 859.425,332.971 852,335.331 C 852,335.331 838.500,339.622 838.500,339.622 C 838.500,339.622 838.227,357.811 838.227,357.811 C 838.227,357.811 837.955,376 837.955,376 C 837.955,376 828.477,376 828.477,376 C 816.891,376 815.006,377.223 814.989,384.750 C 814.974,391.279 813.923,397.071 812.872,396.421 C 812.349,398.355 810.231,398.000 809.304,397.362 C 808.862,397.804 808.266,429.966 807.980,468.833 C 807.980,468.833 807.461,539.500 807.461,539.500 C 807.461,539.500 807.230,458.785 807.230,458.785M 797.782,352.447 C 806.151,348.951 811,341.451 811,332 C 811,319.494 801.796,309.960 789.782,310.022 C 770.458,310.121 761.555,336.388 776.621,348.850 C 782.855,354.006 790.811,355.359 797.782,352.447" stroke="#DE207F" fill="#DE207F" stroke-width="1"/>
  <path id="243" d="M 503.500,501.390 C 501.300,500.553 498.600,499.636 497.500,499.353 C 496.400,499.070 493.925,498.050 492,497.086 C 490.075,496.122 486.540,494.720 484.144,493.971 C 478.902,492.332 478.311,491.120 480.103,485.689 C 481.990,479.970 486.059,475.651 491.945,473.119 C 497.980,470.523 508.755,468.844 509.267,470.421 C 509.561,471.326 509.412,499.958 509.102,502.250 C 508.963,503.279 508.129,503.151 503.500,501.390" stroke="#058833" fill="#058833" stroke-width="1"/>
  <path id="545" d="M 523,611.689 C 523,601.186 522.381,600 516.907,600 C 516.907,600 513.215,600 513.215,600 C 513.215,600 512.654,582.750 512.654,582.750 C 512.346,573.263 512.185,560.392 512.297,554.149 C 512.297,554.149 512.500,542.799 512.500,542.799 C 512.500,542.799 518.500,540.506 518.500,540.506 C 527.589,537.034 529.973,535.536 536.187,529.398 C 542.584,523.079 542.374,522.965 543.318,533.249 C 544.012,540.810 544.400,541 559.188,541 C 566.307,541 573.002,540.534 574.066,539.965 C 575.905,538.981 576,537.600 576,511.906 C 576,493.009 576.321,485.081 577.067,485.542 C 576.496,482.986 586.956,482.986 587.677,481.344 C 587.881,481.548 588.966,485.042 590.087,489.108 C 596.164,511.150 609.544,527.811 628.500,536.942 C 639.371,542.178 645.412,543.447 659.500,543.456 C 676.928,543.467 687.390,539.799 698.659,529.726 C 704.298,524.686 705.697,525.124 706.200,532.083 C 706.841,540.942 706.957,541.003 723.372,540.985 C 731.142,540.977 738.175,540.542 739,540.021 C 740.296,539.202 740.568,531.084 741,480.287 C 741,480.287 741.500,421.500 741.500,421.500 C 741.500,421.500 750.500,418.061 750.500,418.061 C 756.596,415.732 761.517,414.542 765.750,414.373 C 765.750,414.373 772,414.123 772,414.123 C 772,414.123 772,476.005 772,476.005 C 772,476.005 772,537.887 772,537.887 C 772,537.887 774.223,539.443 774.223,539.443 C 777.178,541.513 803.542,541.664 806.224,539.627 C 807.822,538.413 807.968,533.207 808.224,468.242 C 808.376,429.700 808.862,397.804 809.304,397.362 C 811.674,399.817 813.308,395.626 814.130,394.309 C 814.201,392.764 814.648,394.875 815.123,399 C 815.598,403.125 816.201,407.062 816.462,407.750 C 816.801,408.641 819.964,409 827.469,409 C 827.469,409 838,409 838,409 C 838,409 838,456.840 838,456.840 C 838,501.082 838.147,505.257 839.960,512.344 C 844.077,528.439 852.877,537.388 868.621,541.489 C 871.746,542.303 874.432,543.099 874.590,543.257 C 874.908,543.575 875.231,562.912 874.944,564.500 C 874.845,565.050 874.807,565.812 874.862,566.193 C 874.917,566.574 875.225,579.064 875.547,593.948 C 875.547,593.948 876.132,621.011 876.132,621.011 C 876.132,621.011 699.566,620.995 699.566,620.995 C 699.566,620.995 523,620.978 523,620.978 C 523,620.978 523,611.689 523,611.689" stroke="#CC1C7B" fill="#CC1C7B" stroke-width="1"/>
  <path id="556" d="M 875.920,613.264 C 875.831,604.620 875.378,583.250 875.057,572.500 C 874.942,568.650 874.909,565.050 874.984,564.500 C 875.059,563.950 875.069,558.951 875.007,553.392 C 875.007,553.392 874.894,543.284 874.894,543.284 C 874.894,543.284 886.197,542.753 886.197,542.753 C 893.722,542.400 899.171,541.591 902.500,540.334 C 902.500,540.334 907.500,538.445 907.500,538.445 C 907.500,538.445 908.074,532.972 908.074,532.972 C 908.390,529.962 908.343,527.275 907.970,527 C 907.597,526.725 907.041,522.737 906.733,518.137 C 906.425,513.537 905.685,509.285 905.087,508.687 C 904.305,507.905 902.373,507.936 898.190,508.800 C 886.015,511.315 877.434,509.419 872.625,497.875 C 872.281,496.156 872,475.456 872,451.875 C 872,451.875 872,409 872,409 C 872,409 888.300,409 888.300,409 C 899.644,409 904.965,408.635 905.800,407.800 C 906.608,406.992 907.020,402.179 907.063,393.050 C 907.106,383.922 907.422,380.234 908.031,381.750 C 908.031,381.750 908.936,384 908.936,384 C 908.936,384 938.718,384.024 938.718,384.024 C 955.098,384.037 970.075,384.461 972,384.966 C 986.785,388.845 995.609,393.598 1004.140,402.277 C 1011.092,409.349 1017,416.937 1017,418.794 C 1017,419.307 1018.237,420.965 1019.750,422.477 C 1019.750,422.477 1022.500,425.226 1022.500,425.226 C 1022.500,425.226 1022.775,499.600 1022.775,499.600 C 1022.775,499.600 1023.049,573.974 1023.049,573.974 C 1023.049,573.974 1018.939,581.237 1018.939,581.237 C 1016.678,585.232 1014.192,588.860 1013.414,589.300 C 1012.636,589.740 1012,591.134 1012,592.399 C 1012,593.949 1009.775,596.786 1005.175,601.099 C 1001.421,604.619 997.484,608.045 996.425,608.710 C 991.187,612.002 985.748,614.944 983.738,615.573 C 982.507,615.958 980.294,617.282 978.820,618.514 C 978.820,618.514 976.139,620.754 976.139,620.754 C 976.139,620.754 926.070,620.891 926.070,620.891 C 926.070,620.891 876,621.028 876,621.028 C 876,621.028 875.920,613.264 875.920,613.264" stroke="#F73984" fill="#F73984" stroke-width="1"/>
  <path id="219" d="M 868.251,541.519 C 852.647,537.125 844.024,528.234 839.960,512.344 C 838.147,505.257 838,501.082 838,456.840 C 838,456.840 838,409 838,409 C 838,409 827.559,409 827.559,409 C 820.544,409 816.876,408.609 816.380,407.806 C 815.974,407.149 815.441,400.681 815.195,393.432 C 814.774,381.010 814.870,380.130 816.874,378.126 C 818.743,376.257 820.145,376 828.477,376 C 828.477,376 837.955,376 837.955,376 C 837.955,376 838.227,357.811 838.227,357.811 C 838.227,357.811 838.500,339.622 838.500,339.622 C 838.500,339.622 852,335.331 852,335.331 C 866.576,330.698 869.162,330.286 870.857,332.328 C 871.564,333.180 872.057,341.333 872.230,355.078 C 872.230,355.078 872.500,376.500 872.500,376.500 C 872.500,376.500 888.786,376.500 888.786,376.500 C 902.174,376.500 905.241,376.767 906.021,378 C 907.459,380.274 907.265,406.335 905.800,407.800 C 904.965,408.635 899.644,409 888.300,409 C 888.300,409 872,409 872,409 C 872,409 872,451.875 872,451.875 C 872,475.456 872.281,496.156 876.345,503.974 C 877.434,509.419 886.015,511.315 898.190,508.800 C 902.373,507.936 904.305,507.905 905.087,508.687 C 905.685,509.285 906.425,513.537 906.733,518.137 C 907.041,522.737 907.597,526.725 907.970,527 C 908.343,527.275 908.390,529.962 908.074,532.972 C 908.074,532.972 907.500,538.445 907.500,538.445 C 907.500,538.445 902.500,540.344 902.500,540.344 C 895.692,542.930 875.700,543.616 868.251,541.519" stroke="#FDFDFD" fill="#FDFDFD" stroke-width="1"/>
  <path id="219" d="M 481.751,542.469 C 466.939,539.522 454.122,530.134 448.113,517.831 C 439.702,500.609 442.637,476.262 454.739,462.867 C 467.459,448.787 491.683,442.004 529.250,442.001 C 529.250,442.001 541,442 541,442 C 541,442 541,435.115 541,435.115 C 541,421.933 536.283,413.243 526.540,408.476 C 520.549,405.545 514.691,405.086 504.459,406.750 C 496.883,407.982 493.268,409.842 487.434,415.512 C 484.894,417.980 482.463,420 482.030,420 C 481.597,420 480.697,421.318 480.030,422.928 C 479.363,424.538 478.027,426.571 477.060,427.446 C 475.442,428.910 474.754,428.790 468.401,425.927 C 464.605,424.217 460.375,422.349 459,421.777 C 455.219,420.204 448.611,416.812 447.640,415.947 C 446.589,415.010 451.950,404.221 456.670,397.778 C 463.982,387.796 475.361,380.072 489,375.832 C 495.519,373.805 498.526,373.504 512,373.528 C 528.798,373.558 535.343,374.739 545.583,379.583 C 557.038,385.002 568.774,399.201 572.455,412.096 C 575.428,422.512 575.995,434.375 576.009,486.500 C 576.021,534.321 575.885,538.600 574.320,539.750 C 573.161,540.601 568.406,541 559.431,541 C 544.004,541 544.056,541.030 543.072,531.526 C 542.705,527.975 542.186,524.852 541.919,524.586 C 541.653,524.320 538.974,526.593 535.967,529.639 C 530.354,535.325 520.784,540.674 514.358,541.717 C 512.511,542.017 511,542.653 511,543.131 C 511,544.469 489.339,543.979 481.751,542.469M 519.147,511.100 C 533.377,505.641 540.960,493.021 540.988,474.750 C 540.988,474.750 541,467 541,467 C 541,467 532.810,467 532.810,467 C 528.306,467 522.118,467.428 519.060,467.952 C 516.002,468.476 509.774,469.361 505.219,469.919 C 491.918,471.549 483.342,476.406 480.946,483.665 C 480.341,485.499 479.429,487 478.922,487 C 477.672,487 477.764,494.611 479.070,499.315 C 480.594,504.802 486.527,510.304 493.073,512.301 C 500.283,514.500 511.647,513.977 519.147,511.100" stroke="#FDFDFD" fill="#FDFDFD" stroke-width="1"/>
  <path id="219" d="M 339.160,821.776 C 330.150,820.926 317.907,817.277 311.500,813.531 C 297.664,805.442 289,789.724 289,772.713 C 289,748.417 302.870,731.470 329,723.835 C 339.741,720.697 353.313,719.072 374.750,718.359 C 374.750,718.359 395.075,717.684 395.075,717.684 C 395.075,717.684 394.500,713.092 394.500,713.092 C 393.234,702.996 390.716,696.697 386.018,691.874 C 379.984,685.680 373.003,683.563 361,684.287 C 347.781,685.085 340.099,689.200 332.494,699.559 C 329.893,703.101 327.370,706 326.887,706 C 326.404,706 322.519,704.369 318.254,702.376 C 313.989,700.383 308.025,697.645 305,696.291 C 293.608,691.193 293,690.810 293,688.724 C 293,686.348 296.995,679.195 301.423,673.641 C 309.775,663.167 327.335,653.227 343.364,649.901 C 359.028,646.651 381.364,647.415 393.979,651.634 C 409.585,656.853 423.840,668.810 430.334,682.129 C 437.221,696.253 437.290,696.986 437.704,759.906 C 437.908,790.929 438.273,816.634 438.517,817.028 C 438.761,817.422 437.282,818.022 435.230,818.361 C 429.650,819.283 401.701,819.097 400.171,818.127 C 399.412,817.646 398.423,813.911 397.865,809.420 C 397.328,805.095 396.769,801.436 396.622,801.289 C 396.475,801.142 394.852,803.027 393.015,805.479 C 386.975,813.540 368.578,821.145 352.500,822.226 C 349.750,822.411 343.747,822.209 339.160,821.776M 370.069,787.432 C 384.981,783.129 393.031,772.523 394.543,755.194 C 394.543,755.194 395.258,747 395.258,747 C 395.258,747 380.879,747.007 380.879,747.007 C 346.164,747.024 331.714,753.635 331.714,769.500 C 331.714,778.510 337.094,785.064 346.942,788.052 C 351.407,789.407 364.437,789.057 370.069,787.432" stroke="#FDFDFD" fill="#FDFDFD" stroke-width="1"/>
  <path id="219" d="M 360.531,542.887 C 342.578,540.272 326.005,531.074 315.416,517.849 C 301.511,500.482 296.334,482.386 297.293,454.500 C 298.252,426.614 306.090,407.668 323.518,391.113 C 335.738,379.505 348.770,374.354 368.573,373.306 C 403.257,371.470 428.098,390.631 437.538,426.500 C 439.565,434.200 441.497,458.200 440.582,464.304 C 440.582,464.304 439.877,469 439.877,469 C 439.877,469 386.439,469 386.439,469 C 386.439,469 333,469 333,469 C 333,469 333,471.790 333,471.790 C 333,476.282 335.851,485.956 338.740,491.264 C 342.505,498.181 350.580,505.239 357.661,507.803 C 377.616,515.028 396.602,508.737 409.623,490.587 C 409.623,490.587 411.713,487.675 411.713,487.675 C 411.713,487.675 424.356,495.431 424.356,495.431 C 432.403,500.368 436.993,503.790 436.981,504.844 C 436.927,509.590 423.314,525.676 413.996,532.003 C 399.546,541.816 380.207,545.753 360.531,542.887M 405.372,437.750 C 403.325,426.241 399.256,418.087 392.803,412.563 C 379.983,401.589 355.958,403.449 344.335,416.315 C 340.089,421.015 335.019,431.438 334.273,437.003 C 334.273,437.003 333.737,441 333.737,441 C 333.737,441 369.843,441 369.843,441 C 369.843,441 405.950,441 405.950,441 C 405.950,441 405.372,437.750 405.372,437.750" stroke="#FDFDFD" fill="#FDFDFD" stroke-width="1"/>
  <path id="219" d="M 754,818.271 C 753.175,817.957 752.169,817.205 751.765,816.600 C 751.361,815.995 751.023,779.252 751.015,734.950 C 751.003,673.616 751.286,654.114 752.200,653.200 C 754.008,651.392 788.357,651.520 789.868,653.341 C 790.480,654.078 791.322,659.764 791.740,665.975 C 791.740,665.975 792.500,677.269 792.500,677.269 C 792.500,677.269 795.692,672.335 795.692,672.335 C 799.765,666.039 808.403,657.856 813.981,655.010 C 823.066,650.375 837.514,647.501 846.759,648.491 C 856.357,649.519 856.207,649.143 855.826,671.066 C 855.647,681.390 855.170,690.166 854.767,690.568 C 854.364,690.970 847.389,691.344 839.267,691.399 C 824.849,691.497 824.341,691.575 817.799,694.674 C 810.330,698.213 803.202,704.724 800.064,710.874 C 794.891,721.014 794.660,723.429 794.267,771.500 C 793.938,811.771 793.728,816.631 792.259,817.750 C 791.080,818.648 785.670,818.978 773.059,818.921 C 763.402,818.878 754.825,818.585 754,818.271" stroke="#FDFDFD" fill="#FDFDFD" stroke-width="1"/>
  <path id="307" d="M 511.010,287.864 C 511.028,285.327 516.080,275.608 519.756,271.041 C 532.151,255.639 545.195,243.194 561.500,231.212 C 565.350,228.383 570.300,224.740 572.500,223.118 C 580.698,217.072 606.033,202.041 622,193.749 C 662.051,172.950 713.284,153.282 768,137.698 C 805.467,127.027 805.360,127.054 806.719,128.182 C 807.616,128.926 808,132.502 808,140.122 C 808,147.995 808.336,151 809.216,151 C 809.885,151 816.222,149.174 823.300,146.943 C 830.378,144.712 836.918,143.028 837.834,143.203 C 839.241,143.471 839.578,145.348 840,155.265 C 840,155.265 840.500,167.008 840.500,167.008 C 840.500,167.008 835.500,168.466 835.500,168.466 C 832.750,169.268 826.450,171.567 821.500,173.574 C 816.550,175.581 810.025,178.073 807,179.112 C 803.975,180.151 800.600,181.409 799.500,181.909 C 796.317,183.355 779.155,189.975 771.500,192.710 C 767.650,194.086 763.150,195.778 761.500,196.470 C 759.850,197.162 756.700,198.419 754.500,199.263 C 752.300,200.107 748.078,201.744 745.117,202.899 C 742.156,204.054 738.781,204.999 737.617,204.997 C 735.320,204.994 716.818,211.861 716,213.020 C 715.497,213.733 699.101,220.189 687,224.440 C 683.425,225.696 677.575,227.880 674,229.293 C 665.156,232.789 621.274,249.564 612,252.993 C 607.875,254.518 601.575,256.896 598,258.278 C 575.284,267.056 563.223,271.625 553.897,274.984 C 548.065,277.084 538.165,280.841 531.897,283.331 C 519.306,288.333 510.994,290.137 511.010,287.864" stroke="#FCE0C2" fill="#FCE0C2" stroke-width="1"/>
  <path id="55" d="M 506.633,288.367 C 504.207,287.053 491.135,282.027 431,259.287 C 427.425,257.935 420.450,255.318 415.500,253.471 C 405.926,249.899 404.762,249.457 381.500,240.572 C 373.250,237.421 357.050,231.292 345.500,226.953 C 333.950,222.614 320.900,217.668 316.500,215.962 C 305.515,211.704 297.435,208.662 269,198.074 C 255.525,193.057 243.559,188.555 242.409,188.070 C 241.259,187.585 227.984,182.592 212.909,176.976 C 197.834,171.360 184.712,166.074 183.750,165.228 C 182.389,164.032 182.003,162.113 182.015,156.595 C 182.023,152.693 182.421,148.884 182.898,148.131 C 183.806,146.698 186.038,147.108 201,151.461 C 208.388,153.610 218.763,156.122 222.750,156.726 C 222.750,156.726 226,157.219 226,157.219 C 226,157.219 226,150.487 226,150.487 C 226,144.869 225.771,143.945 219.319,143.447 C 215.869,144.073 213,141.214 213,137.149 C 213,131.583 214.005,131.720 249.500,142.128 C 292.882,154.848 323.260,164.579 341,171.438 C 345.675,173.245 353.325,176.196 358,177.996 C 374.912,184.507 398.440,194.979 413.500,202.696 C 432.365,212.363 463.011,232.114 474.726,242.156 C 486.409,252.171 505,271.336 505,273.365 C 505,274.659 509.810,280.856 510.376,280.290 C 511.013,279.653 511.226,280.995 511.401,286.750 C 511.512,290.377 510.793,290.621 506.633,288.367" stroke="#FBC957" fill="#FBC957" stroke-width="1"/>
  <path id="219" d="M 869.672,820.546 C 858.091,817.484 850.982,808.180 851.022,796.136 C 851.036,791.889 851.700,788.060 852.866,785.500 C 855.010,780.792 861.739,774.425 866.810,772.306 C 871.537,770.331 882.508,770.325 887.190,772.295 C 892.989,774.735 899.633,781.475 901.426,786.737 C 904.511,795.792 902.898,802.688 893.153,814 C 892.687,814 890.681,815.579 888.694,817.509 C 885.681,820.435 884.203,821.084 879.791,821.420 C 876.881,821.641 872.327,821.248 869.672,820.546" stroke="#FDFDFD" fill="#FDFDFD" stroke-width="1"/>
  <path id="219" d="M 643.874,822.018 C 594.688,815.862 564.214,776.501 569.057,725.384 C 572.122,693.035 588.438,668.541 615.271,656.007 C 629.344,649.433 634.177,648.505 654,648.576 C 669.864,648.633 672.270,648.878 679.737,651.199 C 702.665,658.326 720.247,675.667 727.969,698.769 C 729.574,703.571 731.359,710.425 731.936,714 C 733.241,722.088 733.299,742.979 732.022,745 C 731.200,746.300 723.145,746.540 671.457,746.795 C 671.457,746.795 611.839,747.089 611.839,747.089 C 611.839,747.089 612.539,751.295 612.539,751.295 C 615.883,771.390 630.628,784.245 652.038,785.733 C 660.232,786.302 666.495,785.284 675.488,781.919 C 679.789,780.310 683.274,777.849 689.003,772.375 C 693.249,768.319 697.211,765 697.808,765 C 699.209,765 723.917,779.732 726.350,782.018 C 728.574,784.108 728.001,785.488 721.243,794.309 C 711.467,807.068 695.288,816.680 677.281,820.425 C 668.351,822.282 652.155,823.054 643.874,822.018M 690.753,713.194 C 689.992,707.518 685.467,698.723 680.875,693.991 C 670.296,683.090 650.297,680.115 634.518,687.095 C 625.178,691.226 615.442,703.537 613.387,713.813 C 613.387,713.813 612.750,717 612.750,717 C 612.750,717 652.007,717 652.007,717 C 652.007,717 691.263,717 691.263,717 C 691.263,717 690.753,713.194 690.753,713.194" stroke="#FDFDFD" fill="#FDFDFD" stroke-width="1"/>
  <path id="219" d="M 650,543.431 C 639.953,541.689 635.514,540.353 628.500,536.959 C 604.554,525.373 590.613,503.499 586.918,471.712 C 581.747,427.230 603.143,387.914 639,376.006 C 647.333,373.239 662.924,372.301 672.827,373.971 C 682.628,375.624 692.813,380.837 699.484,387.615 C 702.399,390.577 704.945,393 705.142,393 C 705.339,393 705.343,374.607 705.150,352.127 C 705.150,352.127 704.799,311.254 704.799,311.254 C 704.799,311.254 707.122,309.627 707.122,309.627 C 709.003,308.309 712.150,308 723.666,308 C 737.228,308 737.958,308.103 739.443,310.223 C 740.830,312.203 741,324.762 741,425.151 C 741,526.278 740.839,538.019 739.429,539.429 C 738.147,540.711 735.223,541 723.551,541 C 706.937,541 706.841,540.951 706.200,532.083 C 705.697,525.124 704.298,524.686 698.659,529.726 C 688.337,538.952 677.933,542.912 662.500,543.490 C 657,543.696 651.375,543.669 650,543.431M 681.174,507.254 C 690.296,502.920 695.119,498.263 699.793,489.280 C 711.698,466.397 708.168,433.339 692.126,417.487 C 677.976,403.504 653.387,402.621 639.043,415.580 C 634.429,419.748 628.667,427.574 628.667,429.672 C 628.667,430.402 628.360,431 627.985,431 C 626.844,431 623.974,441.054 622.847,449 C 621.589,457.866 622.340,470.393 624.586,478.032 C 626.779,485.490 630.059,493 631.123,493 C 631.605,493 632,493.613 632,494.363 C 632,496.553 641.646,504.955 646.783,507.239 C 654.051,510.471 656.814,510.948 666.174,510.591 C 673.317,510.318 675.965,509.729 681.174,507.254" stroke="#FDFDFD" fill="#FDFDFD" stroke-width="1"/>
  <path id="219" d="M 146,818.271 C 145.175,817.957 144.169,817.205 143.765,816.600 C 142.646,814.925 142.855,589.777 143.977,588 C 145.383,585.772 183.558,585.206 186.500,587.369 C 188.480,588.825 188.496,589.778 188.128,682.535 C 187.816,761.138 187.977,776.371 189.128,777.100 C 189.883,777.578 209.648,777.977 233.050,777.985 C 264.794,777.996 275.905,778.305 276.800,779.200 C 277.514,779.914 278,783.356 278,787.700 C 278,791.900 278.425,795 279.075,796.546 C 278.531,796.210 278.160,800.176 278.174,806.178 C 278.195,814.847 277.929,816.579 276.408,817.691 C 274.974,818.739 261.956,818.984 211.059,818.921 C 176.102,818.878 146.825,818.585 146,818.271" stroke="#FDFDFD" fill="#FDFDFD" stroke-width="1"/>
  <path id="219" d="M 147,540.271 C 146.175,539.957 145.169,539.205 144.765,538.600 C 144.361,537.995 144.023,487.244 144.015,425.821 C 144.001,325.615 144.161,313.981 145.571,312.571 C 146.938,311.204 151.517,311.003 180.821,311.023 C 227.856,311.055 239.641,312.152 255.120,317.944 C 266.113,322.057 277.244,331.130 283.980,341.469 C 286.320,345.061 288.632,348 289.117,348 C 289.602,348 290,348.915 290,350.032 C 290,351.149 290.953,354.862 292.119,358.282 C 293.721,362.982 294.447,368.530 295.093,381 C 295.642,391.596 295.599,397.619 294.974,397.833 C 294.438,398.016 294,399.017 294,400.057 C 294,402.194 288.218,417.218 287.097,417.995 C 286.696,418.273 284.685,421.060 282.628,424.188 C 277.766,431.582 268.112,440.506 259.698,445.382 C 256.014,447.517 253,449.373 253,449.506 C 253,449.639 257.870,457.567 263.822,467.124 C 269.774,476.681 279.510,492.375 285.458,502 C 291.406,511.625 298.686,523.373 301.636,528.108 C 304.586,532.843 307,537.403 307,538.242 C 307,539.081 305.987,540.038 304.750,540.370 C 301.285,541.299 265.675,541.081 264.162,540.122 C 263.426,539.656 251.486,520.425 237.628,497.387 C 237.628,497.387 212.431,455.500 212.431,455.500 C 212.431,455.500 197.465,455.500 197.465,455.500 C 197.465,455.500 182.500,455.500 182.500,455.500 C 182.500,455.500 182.246,497 182.246,497 C 182.016,534.597 181.834,538.618 180.305,539.750 C 178.575,541.031 150.165,541.476 147,540.271M 229.211,417.464 C 241.786,414.376 250.913,406.532 254.588,395.653 C 257.206,387.903 256.251,373.078 252.662,365.742 C 249.326,358.924 243.653,353.810 236.079,350.795 C 230.966,348.760 228.472,348.543 206.250,348.209 C 206.250,348.209 182,347.844 182,347.844 C 182,347.844 182,383.255 182,383.255 C 182,402.731 182.299,418.966 182.664,419.331 C 183.850,420.517 223.205,418.939 229.211,417.464" stroke="#FDFDFD" fill="#FDFDFD" stroke-width="1"/>
  <path id="243" d="M 334.273,437.003 C 335.019,431.438 340.089,421.015 344.335,416.315 C 355.958,403.449 379.983,401.589 392.803,412.563 C 399.256,418.087 403.325,426.241 405.372,437.750 C 405.372,437.750 405.950,441 405.950,441 C 405.950,441 369.843,441 369.843,441 C 369.843,441 333.737,441 333.737,441 C 333.737,441 334.273,437.003 334.273,437.003" stroke="#058833" fill="#058833" stroke-width="1"/>
  <path id="243" d="M 241.544,409.138 C 241.103,407.749 239.666,406.965 236.708,406.500 C 230.198,405.477 226.185,403.815 225.694,401.938 C 225.347,400.610 224.154,400.237 220.373,400.271 C 215.523,400.315 210.934,399.050 199.498,394.515 C 196.197,393.206 191.191,391.829 188.374,391.455 C 188.374,391.455 183.252,390.776 183.252,390.776 C 183.252,390.776 182.635,385.638 182.635,385.638 C 182.295,382.812 182.014,373.152 182.009,364.172 C 182.009,364.172 182,347.844 182,347.844 C 182,347.844 206.250,348.209 206.250,348.209 C 228.472,348.543 230.966,348.760 236.079,350.795 C 243.653,353.810 249.326,358.924 252.662,365.742 C 254.983,370.487 255.512,373.043 255.836,381.120 C 256.300,392.662 254.827,398.078 249.209,405.493 C 245.049,410.984 242.513,412.190 241.544,409.138" stroke="#058833" fill="#058833" stroke-width="1"/>
  <path id="219" d="M 518.869,820.109 C 498.849,815.604 486.966,804.321 481.366,784.500 C 479.919,779.378 479.608,771.880 479.248,733.250 C 479.248,733.250 478.826,688 478.826,688 C 478.826,688 465.068,688 465.068,688 C 447.139,688 448,688.903 448,670.106 C 448,662.204 448.460,655.007 449.035,653.934 C 449.985,652.158 451.258,652 464.535,652 C 464.535,652 479,652 479,652 C 479,652 479,632.071 479,632.071 C 479,610.375 479.175,609.664 484.820,608.406 C 486.294,608.078 494.166,606.051 502.314,603.904 C 510.462,601.757 517.909,600 518.864,600 C 522.762,600 523,601.564 523,627.200 C 523,627.200 523,652 523,652 C 523,652 542.965,652 542.965,652 C 561.680,652 562.995,652.121 563.965,653.934 C 564.538,655.004 565,662.150 565,669.934 C 565,689.172 566.496,688 541.949,688 C 541.949,688 522.898,688 522.898,688 C 522.898,688 523.199,729.250 523.199,729.250 C 523.494,769.640 523.547,770.587 525.717,774.645 C 529.859,782.391 540.867,785.001 555.180,781.632 C 558.304,780.897 561.412,780.637 562.087,781.054 C 563.808,782.117 566.408,813.804 564.921,815.595 C 564.330,816.307 561.743,817.567 559.173,818.394 C 546.883,822.348 531.691,822.994 518.869,820.109" stroke="#FDFDFD" fill="#FDFDFD" stroke-width="1"/>
  <path id="243" d="M 437.768,475.079 C 437.008,473.993 434.951,473.015 433.038,472.829 C 427.373,472.278 428.181,470.149 434.185,469.805 C 434.185,469.805 439.500,469.500 439.500,469.500 C 439.500,469.500 440.414,465.145 440.414,465.145 C 441.013,462.294 440.881,455.730 440.033,446.145 C 438.022,423.419 437.982,419.958 439.698,417.339 C 440.535,416.061 440.921,414.237 436.733,412.029 C 435.895,410.833 434.401,409.735 433.413,409.590 C 432.418,409.444 429.912,406.464 427.797,402.913 C 422.459,393.952 411.504,383.789 402.640,379.575 C 391.810,374.426 381.894,372.601 368.573,373.306 C 355.428,374.002 348.084,375.768 338.136,380.626 C 325.227,386.929 310.414,403.215 304.983,417.074 C 302.902,422.384 301.607,424.418 300.200,424.582 C 299.815,424.627 298.215,425.024 296.644,425.466 C 294.669,426.022 292.747,425.773 290.411,424.659 C 286.284,422.691 286.336,421.006 290.873,409.724 C 292.593,405.447 294,401.097 294,400.057 C 294,399.017 294.440,398.016 294.977,397.833 C 295.528,397.645 296.139,390.967 296.378,382.500 C 296.611,374.250 296.561,368.625 296.266,370 C 295.863,371.881 295.135,370.270 293.328,363.500 C 292.007,358.550 290.661,353.225 290.337,351.666 C 290.013,350.107 288.735,347.737 287.496,346.401 C 286.257,345.065 284.972,342.608 284.639,340.943 C 283.981,337.654 274.586,327 272.344,327 C 269.985,327 261.111,320.580 261.054,318.832 C 260.952,315.702 259.884,314.218 258.073,314.691 C 257.072,314.953 256.030,314.522 255.722,313.718 C 255.268,312.534 254.161,312.448 249.563,313.240 C 245.611,313.921 242.120,313.848 237.729,312.992 C 233.768,312.220 216.298,311.593 189.750,311.270 C 189.750,311.270 148,310.762 148,310.762 C 148,310.762 148.070,233.131 148.070,233.131 C 148.109,190.434 148.527,154.600 152.250,154.536 C 155.030,155.365 236.163,185.498 241,187.498 C 242.925,188.294 255.525,193.051 269,198.070 C 297.549,208.704 305.578,211.728 316.500,215.962 C 320.900,217.668 333.950,222.614 345.500,226.953 C 357.050,231.292 373.250,237.421 381.500,240.572 C 404.762,249.457 405.926,249.899 415.500,253.471 C 420.450,255.318 427.425,257.935 431,259.287 C 490.908,281.941 504.153,287.027 506.825,288.409 C 506.825,288.409 509.983,290.043 509.983,290.043 C 509.983,290.043 509.847,331 509.847,331 C 509.725,367.683 509.544,372.002 508.106,372.396 C 507.223,372.638 503.816,373.143 500.536,373.517 C 481.753,375.661 463.864,386.212 455,400.376 C 452.082,405.038 451.122,405.884 449.229,405.460 C 444.618,404.427 439.357,413.222 443.750,414.619 C 444.712,414.925 447.300,416.116 449.500,417.265 C 455.693,420.499 456.281,420.781 459.750,422.179 C 461.538,422.899 463,423.745 463,424.060 C 463,424.375 465.725,425.934 469.055,427.526 C 476.125,430.905 477.390,430.537 480.660,424.156 C 483.546,418.522 492.105,410.507 497.387,408.490 C 499.736,407.593 503.422,407.003 505.579,407.179 C 505.579,407.179 509.500,407.500 509.500,407.500 C 509.500,407.500 509.717,425.115 509.717,425.115 C 509.717,425.115 509.934,442.730 509.934,442.730 C 509.934,442.730 502.274,443.424 502.274,443.424 C 489.971,444.539 476.451,448.179 467.334,452.830 C 461.107,456.007 452.835,464.153 449.500,470.395 C 447.780,473.615 445.980,475.813 445.282,475.549 C 444.612,475.295 443.798,475.518 443.473,476.044 C 442.474,477.661 439.187,477.105 437.768,475.079" stroke="#058833" fill="#058833" stroke-width="1"/>
  <path id="219" d="M 774.682,539.750 C 773.102,538.589 773,532.793 773.241,458 C 773.436,397.481 773.790,377.500 774.667,377.500 C 775.309,377.500 776.171,377.163 776.583,376.750 C 777.728,375.605 802.864,375.857 805.066,377.035 C 806.954,378.045 807,380.003 807,458.335 C 807,519.430 806.713,538.887 805.800,539.800 C 804.096,541.504 777.009,541.461 774.682,539.750" stroke="#FDFDFD" fill="#FDFDFD" stroke-width="1"/>
  <path id="291" d="M 654.500,510.129 C 648.168,508.456 641.874,504.962 637.033,500.434 C 634.265,497.845 632,495.113 632,494.363 C 632,493.613 631.605,493 631.123,493 C 630.059,493 626.779,485.490 624.586,478.032 C 622.340,470.393 621.589,457.866 622.847,449 C 623.974,441.054 626.844,431 627.985,431 C 628.360,431 628.667,430.402 628.667,429.672 C 628.667,427.574 634.429,419.748 639.043,415.580 C 653.387,402.621 677.976,403.504 692.126,417.487 C 708.168,433.339 711.698,466.397 699.793,489.280 C 695.119,498.263 690.296,502.920 681.174,507.254 C 675.965,509.729 673.317,510.318 666.174,510.591 C 661.403,510.773 656.150,510.565 654.500,510.129" stroke="#DE207F" fill="#DE207F" stroke-width="1"/>
  <path id="244" d="M 493.516,512.332 C 490.775,511.491 487.320,509.940 485.837,508.884 C 482.878,506.777 478.640,500.539 479.167,499.067 C 479.350,498.556 484.675,499.924 491,502.107 C 506.804,507.562 508.943,508.186 510.301,507.733 C 511.784,507.239 514,509.383 514,511.312 C 514,514.320 501.952,514.920 493.516,512.332" stroke="#6C4CBD" fill="#6C4CBD" stroke-width="1"/>
  <path id="291" d="M 524.995,504.991 C 524.269,503.634 523.203,503.126 521.710,503.425 C 520.494,503.669 518.027,504.114 516.227,504.414 C 516.227,504.414 512.954,504.959 512.954,504.959 C 512.954,504.959 513.227,487.294 513.227,487.294 C 513.227,487.294 513.500,469.629 513.500,469.629 C 513.500,469.629 518.500,468.334 518.500,468.334 C 521.250,467.622 527.438,467.030 532.250,467.019 C 532.250,467.019 541,467 541,467 C 541,467 540.988,474.750 540.988,474.750 C 540.969,487.247 537.861,496.283 531.187,503.250 C 527.050,507.568 526.462,507.733 524.995,504.991" stroke="#DE207F" fill="#DE207F" stroke-width="1"/>
  <path id="1076" d="M 1023,678.770 C 1023,678.770 1023,583.540 1023,583.540 C 1023,583.540 1020.250,588.689 1020.250,588.689 C 1016.132,596.399 1006.407,607.548 1000.850,610.930 C 991.524,616.606 986.037,619.167 982.078,619.692 C 977.516,620.297 977.507,620.292 979.324,618.240 C 980.327,617.107 982.164,615.925 983.407,615.613 C 985.409,615.111 990.734,612.287 996.425,608.710 C 997.484,608.045 1001.421,604.619 1005.175,601.099 C 1009.775,596.786 1012,593.949 1012,592.399 C 1012,591.134 1012.638,589.740 1013.417,589.300 C 1014.196,588.860 1016.559,585.575 1018.667,582 C 1018.667,582 1022.500,575.500 1022.500,575.500 C 1022.500,575.500 1023.012,500 1023.012,500 C 1023.377,446.160 1023.593,474.634 1023.762,599.250 C 1023.893,695.362 1023.775,774 1023.500,774 C 1023.225,774 1023,731.147 1023,678.770" stroke="#ED9B4F" fill="#ED9B4F" stroke-width="1"/>
  <path id="5" d="M 188.188,700.500 C 188.099,658.150 188.269,622.600 188.565,621.500 C 189.100,619.510 189.845,619.501 333.799,619.743 C 413.382,619.877 478.609,620.327 478.748,620.743 C 478.887,621.159 413.862,621.500 334.250,621.500 C 334.250,621.500 189.500,621.500 189.500,621.500 C 189.500,621.500 189.243,695.500 189.243,695.500 C 189.102,736.200 188.843,771.300 188.668,773.500 C 188.493,775.700 188.277,742.850 188.188,700.500" stroke="#555DA2" fill="#555DA2" stroke-width="1"/>
  <path id="329" d="M 523,637.099 C 523,637.099 523,622.198 523,622.198 C 523,622.198 722.750,621.696 722.750,621.696 C 832.612,621.420 932.748,621.085 945.273,620.953 C 957.798,620.821 968.262,620.928 968.526,621.192 C 969.455,622.121 827.755,622.998 676.750,622.999 C 676.750,622.999 524,623 524,623 C 524,623 524,636.978 524,636.978 C 524,636.978 524,650.957 524,650.957 C 524,650.957 543.250,651.251 543.250,651.251 C 543.250,651.251 562.500,651.546 562.500,651.546 C 562.500,651.546 542.750,651.773 542.750,651.773 C 542.750,651.773 523,652 523,652 C 523,652 523,637.099 523,637.099" stroke="#F3494C" fill="#F3494C" stroke-width="1"/>
  <path id="92" d="M 189.210,623.500 C 189.526,621.511 190.300,621.500 333.930,621.500 C 429.310,621.500 478.447,621.839 478.667,622.500 C 478.888,623.164 430.592,623.422 334.799,623.267 C 221.406,623.084 190.415,623.297 189.745,624.267 C 189.172,625.096 188.997,624.845 189.210,623.500" stroke="#27785E" fill="#27785E" stroke-width="1"/>
  <path id="313" d="M 511.457,179.500 C 511.457,156.950 511.588,147.582 511.749,158.683 C 511.910,169.784 511.910,188.234 511.749,199.683 C 511.588,211.132 511.457,202.050 511.457,179.500" stroke="#DC7D6C" fill="#DC7D6C" stroke-width="1"/>
  <path id="592" d="M 0.136,429.185 C -0.162,421.927 9.410,405.310 18.228,397.776 C 24.834,392.132 34.752,386.212 40.925,384.228 C 44.703,383.013 53.248,382.787 90,382.922 C 114.475,383.012 136.637,382.675 139.250,382.172 C 143.051,381.441 144,381.532 144,382.629 C 144,383.770 136.479,384 99.191,384 C 61.340,384 54.081,384.228 52.441,385.468 C 51.373,386.275 49.407,386.951 48.071,386.968 C 43.329,387.030 31.233,391.809 28.996,394.504 C 28.323,395.314 27.353,395.718 26.840,395.401 C 25.114,394.334 10.030,411.150 6.931,417.597 C 5.319,420.950 4,424.157 4,424.724 C 4,425.291 3.352,426.293 2.560,426.950 C 1.768,427.607 0.929,429.125 0.696,430.323 C 0.413,431.778 0.227,431.400 0.136,429.185" stroke="#8A8874" fill="#8A8874" stroke-width="1"/>
  <path id="336" d="M 523.178,621.489 C 523.835,620.832 874.182,620.848 874.839,621.505 C 875.111,621.777 795.983,622 699,622 C 602.017,622 522.897,621.770 523.178,621.489" stroke="#DF3659" fill="#DF3659" stroke-width="1"/>
  <path id="590" d="M 43.545,622.073 C 43.230,621.563 41.291,620.624 39.236,619.986 C 33.688,618.264 25.742,614.340 23.418,612.175 C 20.392,609.356 17.336,607.934 15.674,608.572 C 10.595,608.894 16.426,605.922 13.104,603.465 C 11.397,601.521 10,599.327 10,598.588 C 10,597.849 9.288,596.654 8.418,595.932 C 5.278,593.326 0.836,582.854 0.432,577.106 C 0.138,572.918 0.247,572.259 0.865,574.500 C 4.106,586.252 20.064,606.933 24.010,604.494 C 24.483,604.202 26.097,605.572 27.598,607.540 C 30.948,611.932 35.404,614.367 44,616.422 C 50.586,618.450 51.555,619.970 47.453,621.839 C 44.382,623.238 44.270,623.245 43.545,622.073" stroke="#3C8392" fill="#3C8392" stroke-width="1"/>
  <path id="794" d="M 289.250,429.499 C 286.362,428.187 284,427.403 284,427.757 C 284,428.111 283.499,427.899 282.887,427.287 C 282.070,426.470 282.385,425.086 284.074,422.081 C 285.520,419.508 286.642,418.422 287.095,419.154 C 287.491,419.795 287.595,420.892 287.326,421.592 C 286.678,423.282 292.669,426.324 295.378,425.681 C 302.490,423.994 302.058,423.911 301.367,426.806 C 299.957,432.716 297.521,433.257 289.250,429.499" stroke="#3D6E7F" fill="#3D6E7F" stroke-width="1"/>
  <path id="7" d="M 141.755,719.750 C 141.755,719.750 141.500,623.500 141.500,623.500 C 141.500,623.500 95.833,623 95.833,623 C 70.716,622.725 49.940,622.275 49.665,622 C 49.390,621.725 70.279,621.500 96.083,621.500 C 96.083,621.500 142.999,621.500 142.999,621.500 C 142.999,621.500 143,718.750 143,718.750 C 143,772.237 142.777,816 142.505,816 C 142.233,816 141.895,772.688 141.755,719.750" stroke="#61C091" fill="#61C091" stroke-width="1"/>
  <path id="107" d="M 379.500,1 C 379.500,1 250.500,0.489 250.500,0.489 C 250.500,0.489 380.750,0.244 380.750,0.244 C 467.080,0.082 511,0.337 511,1 C 511,1.550 510.438,1.890 509.750,1.756 C 509.062,1.622 450.450,1.281 379.500,1" stroke="#ADBE61" fill="#ADBE61" stroke-width="1"/>
  <path id="794" d="M 503.500,506.409 C 501.300,505.582 495.225,503.461 490,501.696 C 484.775,499.931 479.938,498.125 479.250,497.684 C 478.485,497.193 478.046,494.867 478.118,491.691 C 478.210,487.668 478.378,487.154 478.868,489.407 C 479.410,491.901 480.411,492.642 485.914,494.621 C 489.442,495.890 492.794,497.394 493.364,497.964 C 493.934,498.534 495.233,499 496.250,499 C 497.267,499 499.347,499.646 500.873,500.435 C 502.399,501.224 504.965,502.011 506.574,502.185 C 508.188,502.359 510.021,503.391 510.662,504.487 C 512.874,508.269 510.293,508.961 503.500,506.409" stroke="#3D6E7F" fill="#3D6E7F" stroke-width="1"/>
  <path id="259" d="M 509,948.300 C 509,923.740 509.250,917.849 510.250,918.849 C 511.170,919.769 511.566,926.752 511.748,945.299 C 512.002,971.157 511.582,979 509.939,979 C 509.374,979 509,966.764 509,948.300" stroke="#208530" fill="#208530" stroke-width="1"/>
  <path id="791" d="M 317,656.291 C 317,649.193 330.535,643.642 334.397,649.156 C 335.866,651.253 335.697,651.405 328.203,654.742 C 316.964,659.747 317,659.741 317,656.291" stroke="#198241" fill="#198241" stroke-width="1"/>
  <path id="1068" d="M 887,819.129 C 887,818.650 888.572,817.187 890.493,815.879 C 892.414,814.571 893.989,813.102 893.993,812.615 C 893.997,812.128 895.013,810.747 896.250,809.546 C 897.487,808.345 899.328,805.824 900.340,803.944 C 902.098,800.677 902.242,800.611 903.590,802.454 C 905.225,804.690 905.453,808.602 904,809.500 C 903.450,809.840 903,810.974 903,812.020 C 903,814.916 899.499,817.557 895.285,817.841 C 893.205,817.981 891.076,818.524 890.552,819.048 C 889.360,820.240 887,820.294 887,819.129" stroke="#FF9F6A" fill="#FF9F6A" stroke-width="1"/>
  <path id="794" d="M 442,482.969 C 442,482.436 440.180,482 437.956,482 C 435.028,482 433.169,481.310 431.217,479.500 C 429.734,478.125 427.609,477 426.495,477 C 425.381,477 422.791,476.100 420.739,475 C 418.687,473.900 416.154,473 415.111,473 C 413.540,473 412,471.227 412,469.418 C 412,469.188 418.188,469.083 425.750,469.185 C 433.312,469.287 437.108,469.537 434.185,469.740 C 428.183,470.157 427.394,472.280 433.038,472.829 C 434.951,473.015 437.008,473.993 437.768,475.079 C 439.256,477.203 442.009,477.591 443.687,475.913 C 445.275,474.325 446.102,476.237 445.383,479.833 C 444.828,482.610 442,485.231 442,482.969" stroke="#3D6E7F" fill="#3D6E7F" stroke-width="1"/>
  <path id="97" d="M 217.689,155.817 C 215.020,154.844 214.963,154.698 216.564,152.929 C 217.527,151.864 218.023,150.194 218.347,145.217 C 217.762,142.982 221.827,142.387 222.670,144.584 C 223.103,145.712 223.553,145.786 224.617,144.903 C 225.771,143.945 226,144.853 226,150.378 C 226,156.955 225.981,156.999 223.250,156.921 C 221.738,156.878 219.235,156.381 217.689,155.817" stroke="#CDCA39" fill="#CDCA39" stroke-width="1"/>
  <path id="282" d="M 511.500,423.904 C 511.500,423.904 511.500,404.809 511.500,404.809 C 511.500,404.809 516.500,405.470 516.500,405.470 C 521.583,406.142 530.720,409.612 529.809,410.524 C 529.534,410.799 527.327,410.156 524.905,409.094 C 522.483,408.032 518.925,407.015 517,406.832 C 517,406.832 513.500,406.500 513.500,406.500 C 513.500,406.500 513.317,424.478 513.317,424.478 C 513.216,434.366 512.766,442.578 512.317,442.728 C 511.868,442.878 511.500,434.407 511.500,423.904" stroke="#D43E78" fill="#D43E78" stroke-width="1"/>
  <path id="877" d="M 605.002,396.750 C 605.004,393.881 612.205,387 615.206,387 C 617.103,387 616.547,387.900 611.500,393 C 608.234,396.300 605.436,399 605.281,399 C 605.126,399 605.001,397.987 605.002,396.750" stroke="#C7337F" fill="#C7337F" stroke-width="1"/>
  <path id="260" d="M 509.053,1001.033 C 509.112,992.251 508.825,984.526 511.475,984 C 512.112,984 512.060,1008.771 511.415,1012.808 C 510.002,1021.644 508.950,1016.399 509.053,1001.033" stroke="#1CA650" fill="#1CA650" stroke-width="1"/>
  <path id="262" d="M 509.950,436.250 C 509.922,432.538 509.810,424.213 509.700,417.750 C 509.590,411.287 509.837,406 510.250,406 C 510.663,406 511,414.325 511,424.500 C 511,434.675 510.775,443 510.500,443 C 510.225,443 509.978,439.962 509.950,436.250" stroke="#3A7445" fill="#3A7445" stroke-width="1"/>
  <path id="274" d="M 511.415,424 C 511.415,413.825 511.564,409.663 511.745,414.750 C 511.926,419.837 511.926,428.163 511.745,433.250 C 511.564,438.337 511.415,434.175 511.415,424" stroke="#855C5B" fill="#855C5B" stroke-width="1"/>
  <path id="277" d="M 511,571.906 C 511,555.458 511.337,542.002 511.750,542.004 C 512.162,542.006 512.571,554.891 512.658,570.638 C 512.773,591.359 513.142,599.469 513.993,599.995 C 514.769,600.474 514.460,600.909 513.085,601.268 C 511.007,601.812 511,601.724 511,571.906" stroke="#9B37A1" fill="#9B37A1" stroke-width="1"/>
  <path id="360" d="M 559,818.948 C 559,818.427 559.625,818 560.389,818 C 561.153,818 562.737,817.213 563.908,816.250 C 566.030,814.506 566.034,814.443 564.643,798 C 563.876,788.925 563.417,781.312 563.624,781.083 C 564.653,779.943 565.190,783.039 566.562,798.011 C 567.928,812.922 567.916,814.435 566.429,816.078 C 564.492,818.218 559,820.340 559,818.948" stroke="#EF5946" fill="#EF5946" stroke-width="1"/>
  <path id="747" d="M 412,660.854 C 408.918,658.290 397.562,652.561 393.500,651.521 C 391.850,651.099 391.072,650.543 391.771,650.286 C 392.470,650.029 394.329,650.268 395.901,650.816 C 398.112,651.587 399.100,651.471 400.264,650.307 C 401.604,648.967 402.059,648.992 404.410,650.533 C 406.086,651.631 406.861,652.864 406.530,653.907 C 406.171,655.038 407.091,656.132 409.480,657.419 C 413.075,659.355 416.995,663.025 415.405,662.967 C 414.907,662.949 413.375,661.998 412,660.854" stroke="#238B3F" fill="#238B3F" stroke-width="1"/>
  <path id="282" d="M 512.420,489.500 C 512.419,478.500 512.566,473.864 512.745,479.197 C 512.924,484.530 512.925,493.530 512.746,499.197 C 512.567,504.864 512.421,500.500 512.420,489.500" stroke="#D43E78" fill="#D43E78" stroke-width="1"/>
  <path id="776" d="M 468,427.020 C 461.236,423.422 463.114,423.011 470.112,426.557 C 475.848,429.464 476.826,429.120 480.024,423.071 C 481.062,421.107 481.932,420.221 481.956,421.102 C 482.026,423.638 477.629,429.478 475.466,429.723 C 474.385,429.845 471.025,428.629 468,427.020" stroke="#1D8A40" fill="#1D8A40" stroke-width="1"/>
  <path id="776" d="M 436.470,422.861 C 436.074,421.056 434.889,417.575 433.839,415.125 C 431.439,409.525 432.749,407.738 436.383,411.657 C 439.812,414.504 440.669,412.001 439.986,416.723 C 439.238,418.250 438.485,420.813 438.312,422.418 C 437.868,426.530 437.306,426.665 436.470,422.861" stroke="#1D8A40" fill="#1D8A40" stroke-width="1"/>
  <path id="262" d="M 510.089,503.500 C 509.891,502.950 509.660,494.962 509.575,485.750 C 509.575,485.750 509.420,469 512.773,469.685 C 511.237,470.088 511.014,472.036 510.748,487.319 C 510.584,496.769 510.287,504.050 510.089,503.500" stroke="#3A7445" fill="#3A7445" stroke-width="1"/>
  <path id="776" d="M 295.115,381.500 C 295.161,376.550 295.556,371.375 295.992,370 C 296.484,368.448 296.752,371.390 296.699,377.753 C 296.652,383.392 296.257,388.567 295.822,389.253 C 295.387,389.939 295.069,386.450 295.115,381.500" stroke="#1D8A40" fill="#1D8A40" stroke-width="1"/>
  <path id="776" d="M 395.200,811.800 C 394.540,811.140 393.993,809.903 391.761,808.819 C 391.476,808.077 392.476,805.994 393.983,804.189 C 393.983,804.189 396.723,800.907 396.723,800.907 C 396.723,800.907 397.351,804.704 397.351,804.704 C 398.621,812.389 397.962,814.562 395.200,811.800" stroke="#1D8A40" fill="#1D8A40" stroke-width="1"/>
  <path id="274" d="M 511.415,488 C 511.415,477.825 511.564,473.663 511.745,478.750 C 511.926,483.837 511.926,492.163 511.745,497.250 C 511.564,502.337 511.415,498.175 511.415,488" stroke="#855C5B" fill="#855C5B" stroke-width="1"/>
  <path id="266" d="M 510.413,569.500 C 510.414,559.600 510.564,555.686 510.746,560.801 C 510.928,565.916 510.927,574.016 510.744,578.801 C 510.561,583.586 510.412,579.400 510.413,569.500" stroke="#8244B2" fill="#8244B2" stroke-width="1"/>
  <path id="776" d="M 442.667,414.333 C 441.278,412.944 442.090,409.820 444.455,407.455 C 447.095,404.815 447.812,404.594 449.751,405.825 C 451.587,406.991 447.565,415 445.143,415 C 444.147,415 443.034,414.700 442.667,414.333" stroke="#1D8A40" fill="#1D8A40" stroke-width="1"/>
  <path id="776" d="M 386.698,717.270 C 389.857,716.984 390.758,716.532 390.341,715.445 C 390.036,714.650 390.284,714 390.893,714 C 392.233,714 392.364,710.774 391.077,709.450 C 390.022,708.364 390.820,703 392.037,703 C 392.884,703 393.467,705.430 394.497,713.250 C 394.497,713.250 395.123,718 395.123,718 C 395.123,718 388.811,717.825 388.811,717.825 C 383.980,717.691 383.485,717.561 386.698,717.270" stroke="#1D8A40" fill="#1D8A40" stroke-width="1"/>
  <path id="877" d="M 701.780,389.890 C 700.526,388.180 697.116,385.067 694.202,382.973 C 689.561,379.637 689.158,379.084 690.952,378.515 C 693.860,377.592 696.564,378.685 698.434,381.539 C 699.321,382.893 700.936,384 702.023,384 C 703.696,384 704.021,383.270 704.134,379.250 C 704.134,379.250 704.267,374.500 704.267,374.500 C 704.267,374.500 705.046,379.500 705.046,379.500 C 706.164,386.679 706.157,393 705.030,393 C 704.496,393 703.034,391.601 701.780,389.890" stroke="#C7337F" fill="#C7337F" stroke-width="1"/>
  <path id="794" d="M 236,411.585 C 234.625,410.851 230.456,409.495 226.735,408.574 C 220.098,406.930 209.434,403.243 203.500,400.540 C 201.850,399.788 199.150,398.932 197.500,398.637 C 195.850,398.342 192.250,397.330 189.500,396.388 C 186.750,395.446 183.938,394.539 183.250,394.370 C 182.419,394.166 182.056,392.293 182.168,388.781 C 182.299,384.678 182.422,384.309 182.721,387.128 C 183.098,390.677 183.219,390.771 188.301,391.445 C 191.158,391.824 196.197,393.206 199.498,394.515 C 210.934,399.050 215.523,400.315 220.373,400.271 C 224.154,400.237 225.347,400.610 225.694,401.938 C 226.183,403.807 230.197,405.478 236.619,406.485 C 239.611,406.954 241.032,407.775 241.810,409.482 C 242.663,411.353 242.570,411.951 241.358,412.416 C 239.316,413.200 238.904,413.136 236,411.585" stroke="#3D6E7F" fill="#3D6E7F" stroke-width="1"/>
  <path id="791" d="M 382.500,648.943 C 380.300,648.488 374.450,648.038 369.500,647.943 C 362.890,647.816 361.134,647.530 362.890,646.865 C 365.431,645.903 383.186,647.334 388.500,648.928 C 391.232,649.748 391.277,649.825 389,649.799 C 387.625,649.783 384.700,649.398 382.500,648.943" stroke="#198241" fill="#198241" stroke-width="1"/>
  <path id="776" d="M 252,316.939 C 247.875,315.391 244.950,314.077 245.500,314.019 C 246.050,313.961 248.447,313.537 250.827,313.077 C 254.255,312.415 255.271,312.544 255.715,313.701 C 256.029,314.520 257.065,314.955 258.073,314.691 C 259.846,314.227 261,315.762 261,318.582 C 261,320.338 261.114,320.358 252,316.939" stroke="#1D8A40" fill="#1D8A40" stroke-width="1"/>
  <path id="590" d="M 74.250,621.251 C 86.762,621.092 107.238,621.092 119.750,621.251 C 132.262,621.410 122.025,621.539 97,621.539 C 71.975,621.539 61.737,621.410 74.250,621.251" stroke="#3C8392" fill="#3C8392" stroke-width="1"/>
  <path id="545" d="M 513.530,509.311 C 512.770,505.257 513.835,504.040 518.168,504.015 C 519.636,504.007 521.513,503.740 522.341,503.422 C 524.168,502.721 526.657,506.743 525.260,508.140 C 524.751,508.649 522.056,509.931 519.271,510.989 C 519.271,510.989 514.206,512.913 514.206,512.913 C 514.206,512.913 513.530,509.311 513.530,509.311" stroke="#CC1C7B" fill="#CC1C7B" stroke-width="1"/>
  <path id="5" d="M 49.999,620.250 C 49.998,619.568 84.777,619.581 127,620.279 C 136.075,620.429 122.463,620.653 96.750,620.776 C 71.037,620.899 49.999,620.662 49.999,620.250" stroke="#555DA2" fill="#555DA2" stroke-width="1"/>
  <path id="313" d="M 511.243,67.750 C 511.243,67.750 511,0 511,0 C 511,0 642.667,0 642.667,0 C 715.084,0 774.109,0.224 773.834,0.499 C 773.559,0.774 714.537,1.003 642.674,1.008 C 642.674,1.008 512.014,1.017 512.014,1.017 C 512.014,1.017 511.750,68.258 511.750,68.258 C 511.750,68.258 511.486,135.500 511.486,135.500 C 511.486,135.500 511.243,67.750 511.243,67.750" stroke="#DC7D6C" fill="#DC7D6C" stroke-width="1"/>
  <path id="296" d="M 613.387,713.813 C 615.442,703.537 625.178,691.226 634.518,687.095 C 650.297,680.115 670.296,683.090 680.875,693.991 C 685.467,698.723 689.992,707.518 690.753,713.194 C 690.753,713.194 691.263,717 691.263,717 C 691.263,717 652.007,717 652.007,717 C 652.007,717 612.750,717 612.750,717 C 612.750,717 613.387,713.813 613.387,713.813" stroke="#F94D30" fill="#F94D30" stroke-width="1"/>
  <path id="291" d="M 513.667,441.333 C 512.670,440.336 512.861,407.203 513.868,406.581 C 514.785,406.014 521.810,407.806 528.487,410.310 C 536.319,413.247 541,422.526 541,435.115 C 541,435.115 541,442 541,442 C 541,442 527.667,442 527.667,442 C 520.334,442 514.034,441.700 513.667,441.333" stroke="#DE207F" fill="#DE207F" stroke-width="1"/>
  <path id="282" d="M 512,331.117 C 512,331.117 512,289.233 512,289.233 C 515.618,286.807 515.618,291.589 512.959,290.966 C 512.959,290.966 513.022,331.425 513.022,331.425 C 513.022,331.425 513.085,371.884 520.500,372.664 C 520.500,372.664 516.250,372.832 516.250,372.832 C 516.250,372.832 512,373 512,373 C 512,373 512,331.117 512,331.117" stroke="#D43E78" fill="#D43E78" stroke-width="1"/>
  <path id="274" d="M 509.272,372.306 C 510.937,371.872 511.027,369.377 510.772,330.922 C 510.623,308.414 510.837,290 511.250,290 C 511.663,290 512,308.675 512,331.500 C 512,331.500 512,373 512,373 C 512,373 509.750,372.884 509.750,372.884 C 508.023,372.795 507.912,372.660 509.272,372.306" stroke="#855C5B" fill="#855C5B" stroke-width="1"/>
  <path id="262" d="M 509.899,365.750 C 509.635,349.409 510.131,291.536 510.539,291.128 C 510.793,290.874 511,308.966 511,331.333 C 511,353.700 510.775,372 510.500,372 C 510.225,372 509.955,369.188 509.899,365.750" stroke="#3A7445" fill="#3A7445" stroke-width="1"/>
  <path id="259" d="M 509.049,855.873 C 509.049,855.873 509.186,818.746 509.186,818.746 C 509.186,818.746 505.343,816.954 505.343,816.954 C 500.525,814.707 502.034,814.465 507.602,816.592 C 507.602,816.592 511.771,818.184 511.771,818.184 C 511.771,818.184 511.464,848.342 511.464,848.342 C 511.295,864.929 511.121,881.763 511.078,885.750 C 511.031,890.069 510.578,893 509.956,893 C 509.247,893 508.956,881.083 509.049,855.873" stroke="#208530" fill="#208530" stroke-width="1"/>
  <path id="244" d="M 182.669,419.336 C 182.301,418.968 182,413.165 182,406.440 C 182,406.440 182,394.213 182,394.213 C 182,394.213 186.130,395.140 186.130,395.140 C 188.401,395.650 191.162,396.552 192.267,397.143 C 193.372,397.734 195.676,398.437 197.388,398.704 C 199.100,398.971 202.300,399.989 204.500,400.967 C 209.339,403.118 222.430,407.512 230.094,409.558 C 233.171,410.379 236.546,411.685 237.594,412.460 C 239.396,413.792 239.295,413.956 235.764,415.442 C 233.709,416.307 229.884,417.440 227.264,417.960 C 221.480,419.107 183.609,420.276 182.669,419.336" stroke="#6C4CBD" fill="#6C4CBD" stroke-width="1"/>
  <path id="243" d="M 346.942,788.052 C 337.094,785.064 331.714,778.510 331.714,769.500 C 331.714,753.635 346.164,747.024 380.879,747.007 C 380.879,747.007 395.258,747 395.258,747 C 395.258,747 394.543,755.194 394.543,755.194 C 393.031,772.523 384.981,783.129 370.069,787.432 C 364.437,789.057 351.407,789.407 346.942,788.052" stroke="#058833" fill="#058833" stroke-width="1"/>
  <path id="219" d="M 783.500,352.939 C 781.850,352.455 778.755,350.615 776.621,348.850 C 761.555,336.388 770.458,310.121 789.782,310.022 C 801.796,309.960 811,319.494 811,332 C 811,347.129 797.841,357.149 783.500,352.939" stroke="#FDFDFD" fill="#FDFDFD" stroke-width="1"/>
</svg>
